<svg preserveAspectRatio="none" width="100%" height="100%" overflow="visible" style="display: block;" viewBox="0 0 16.8889 16.8889" fill="none" xmlns="http://www.w3.org/2000/svg">
<g id="Logo">
<path id="Path 2" d="M12.7217 5.4912H10.6289C9.39296 5.4912 6.60528 4.8659 7.42921 1.40743C6.91474 1.611 6.47333 1.96451 6.16227 2.42207C5.8512 2.87964 5.68485 3.42013 5.68479 3.97342V4.98525C5.68479 5.16231 5.6908 5.33551 5.70283 5.50486C8.338 5.68119 10.9465 7.55785 11.1859 10.9965C11.3221 11.0058 11.4585 11.0105 11.5949 11.0105H12.7217C13.4536 11.0105 14.1555 10.7197 14.673 10.2022C15.1905 9.68471 15.4812 8.98282 15.4812 8.25094C15.4812 7.51907 15.1905 6.81717 14.673 6.29966C14.1555 5.78214 13.4536 5.49141 12.7217 5.49141V5.4912Z" fill="var(--fill-0, white)" fill-opacity="0.6"/>
<path id="Path 3" d="M5.29384 5.49155H4.16698C3.4351 5.49155 2.7332 5.78229 2.21569 6.2998C1.69818 6.81731 1.40744 7.51921 1.40744 8.25108C1.40744 8.98296 1.69818 9.68485 2.21569 10.2024C2.7332 10.7199 3.4351 11.0106 4.16698 11.0106H6.25969C7.49551 11.0106 10.2832 11.6359 9.4594 15.0945C9.97384 14.8909 10.4152 14.5374 10.7263 14.0798C11.0373 13.6222 11.2037 13.0817 11.2038 12.5285V11.5165C11.2038 7.56134 8.19146 5.49155 5.29384 5.49155Z" fill="var(--fill-0, white)"/>
</g>
</svg>
