<svg preserveAspectRatio="none" width="100%" height="100%" overflow="visible" style="display: block;" viewBox="0 0 38 38" fill="none" xmlns="http://www.w3.org/2000/svg">
<g id="Logo">
<path id="Path 2" d="M28.6242 12.3551H23.9154C21.1345 12.3551 14.8622 10.9482 16.7161 3.16667C15.5585 3.62471 14.5654 4.42009 13.8655 5.44961C13.1656 6.47913 12.7913 7.69524 12.7911 8.94013V11.2168C12.7911 11.6151 12.8047 12.0048 12.8317 12.3859C18.7609 12.7826 24.63 17.0051 25.1687 24.7422C25.4752 24.7631 25.7819 24.7735 26.0889 24.7735H28.6242C30.2709 24.7735 31.8502 24.1194 33.0146 22.955C34.179 21.7906 34.8332 20.2113 34.8332 18.5646C34.8332 16.9179 34.179 15.3386 33.0146 14.1742C31.8502 13.0098 30.2709 12.3556 28.6242 12.3556V12.3551Z" fill="var(--fill-0, white)" fill-opacity="0.6"/>
<path id="Path 3" d="M11.9114 12.356H9.37594C7.72922 12.356 6.14995 13.0101 4.98555 14.1745C3.82115 15.3389 3.16699 16.9182 3.16699 18.5649C3.16699 20.2116 3.82115 21.7909 4.98555 22.9553C6.14995 24.1197 7.72922 24.7739 9.37594 24.7739H14.0845C16.8651 24.7739 23.1374 26.1808 21.2839 33.9626C22.4414 33.5045 23.4345 32.709 24.1343 31.6795C24.8342 30.65 25.2085 29.4339 25.2087 28.189V25.9121C25.2087 17.013 18.431 12.356 11.9114 12.356Z" fill="var(--fill-0, white)"/>
</g>
</svg>
