<svg preserveAspectRatio="none" width="100%" height="100%" overflow="visible" style="display: block;" viewBox="0 0 24 24" fill="none" xmlns="http://www.w3.org/2000/svg">
<g id="ios_share">
<mask id="mask0_0_124" style="mask-type:alpha" maskUnits="userSpaceOnUse" x="0" y="0" width="24" height="24">
<rect id="Bounding box" width="24" height="24" fill="var(--fill-0, #D9D9D9)"/>
</mask>
<g mask="url(#mask0_0_124)">
<path id="ios_share_2" d="M6.30775 21.5C5.80258 21.5 5.375 21.325 5.025 20.975C4.675 20.625 4.5 20.1974 4.5 19.6922V10.3078C4.5 9.80258 4.675 9.375 5.025 9.025C5.375 8.675 5.80258 8.5 6.30775 8.5H8.86525V10H6.30775C6.23075 10 6.16025 10.0321 6.09625 10.0962C6.03208 10.1602 6 10.2308 6 10.3078V19.6922C6 19.7692 6.03208 19.8398 6.09625 19.9038C6.16025 19.9679 6.23075 20 6.30775 20H17.6923C17.7693 20 17.8398 19.9679 17.9038 19.9038C17.9679 19.8398 18 19.7692 18 19.6922V10.3078C18 10.2308 17.9679 10.1602 17.9038 10.0962C17.8398 10.0321 17.7693 10 17.6923 10H15.1348V8.5H17.6923C18.1974 8.5 18.625 8.675 18.975 9.025C19.325 9.375 19.5 9.80258 19.5 10.3078V19.6922C19.5 20.1974 19.325 20.625 18.975 20.975C18.625 21.325 18.1974 21.5 17.6923 21.5H6.30775ZM11.25 15.75V4.71925L9.4 6.56925L8.34625 5.5L12 1.84625L15.6538 5.5L14.6 6.56925L12.75 4.71925V15.75H11.25Z" fill="var(--fill-0, #676767)"/>
</g>
</g>
</svg>
