<svg preserveAspectRatio="none" width="100%" height="100%" overflow="visible" style="display: block;" viewBox="0 0 1016.86 114.335" fill="none" xmlns="http://www.w3.org/2000/svg">
<path id="Vector 9" d="M0.32371 95.5042L103.974 72.3217C106.054 71.8565 108.073 71.1527 109.991 70.2242L185.494 33.6834C194.781 29.1888 205.797 30.2315 214.076 36.3888L265.925 74.952C277.193 83.3324 292.951 81.9491 302.586 71.7338L360.652 10.1723C369.959 0.304741 385.045 -1.36581 396.286 6.22641L475.427 59.6801L527.028 97.8169C538.688 106.435 555.022 104.596 564.475 93.6015L617.342 32.1096C628.8 18.7826 649.615 19.3673 660.307 33.3166L712.817 101.825C721.924 113.708 738.828 116.197 750.974 107.445L811.804 63.6121C815.39 61.0284 819.542 59.3407 823.914 58.6901L903.824 46.7973C910.624 45.7853 917.557 47.3394 923.274 51.157L1016.04 113.102" stroke="var(--stroke-0, #FE9B0E)" stroke-width="2.96616"/>
</svg>
