<svg preserveAspectRatio="none" width="100%" height="100%" overflow="visible" style="display: block;" viewBox="0 0 1021.93 138.748" fill="none" xmlns="http://www.w3.org/2000/svg">
<path id="Vector 11" d="M0.219901 137.282L120.799 119.203C125.625 118.48 130.551 118.815 135.234 120.188L168.2 129.845C183.093 134.208 199.037 127.81 206.782 114.361L262.089 18.3236C274.536 -3.29047 305.359 -4.29882 319.192 16.4555L367.142 88.3949C377.88 104.506 399.973 108.239 415.409 96.55L459.282 63.3269C467.919 56.7861 480.431 60.9677 483.401 71.3876C486.664 82.8401 501.132 86.4191 509.358 77.8089L533.478 52.5645C546.981 38.4325 569.647 38.7556 582.741 53.2665L620.503 95.1135C632.226 108.105 651.955 109.93 665.863 99.31L712.176 63.9438C723.359 55.4047 738.676 54.7329 750.563 62.2603L803.293 95.6512C813.773 102.288 827.056 102.613 837.849 96.4983L903.874 59.0892C914.121 53.2836 926.658 53.2635 936.924 59.0362L1021.2 106.432" stroke="var(--stroke-0, #3457C9)" stroke-width="2.96616"/>
</svg>
