<svg preserveAspectRatio="none" width="100%" height="100%" overflow="visible" style="display: block;" viewBox="0 0 24 24" fill="none" xmlns="http://www.w3.org/2000/svg">
<g id="Logo">
<path id="Path 2" d="M18.078 7.80325H15.104C13.3476 7.80325 9.3862 6.91467 10.557 2C9.82595 2.28929 9.19868 2.79164 8.75665 3.44186C8.31461 4.09208 8.07821 4.86015 8.07812 5.6464V7.08427C8.07812 7.33588 8.08667 7.58201 8.10377 7.82266C11.8485 8.07324 15.5553 10.7401 15.8956 15.6266C16.0891 15.6398 16.2828 15.6464 16.4767 15.6464H18.078C19.118 15.6464 20.1154 15.2333 20.8508 14.4979C21.5862 13.7625 21.9994 12.765 21.9994 11.725C21.9994 10.685 21.5862 9.68753 20.8508 8.95211C20.1154 8.2167 19.118 7.80355 18.078 7.80355V7.80325Z" fill="url(#paint0_linear_0_10)"/>
<path id="Path 3" d="M7.52297 7.80376H5.92165C4.88162 7.80376 3.88418 8.21691 3.14877 8.95233C2.41336 9.68774 2.00021 10.6852 2.00021 11.7252C2.00021 12.7652 2.41336 13.7627 3.14877 14.4981C3.88418 15.2335 4.88162 15.6466 5.92165 15.6466H8.8955C10.6517 15.6466 14.6131 16.5352 13.4425 21.4501C14.1735 21.1607 14.8007 20.6583 15.2427 20.0081C15.6847 19.3579 15.9211 18.5898 15.9213 17.8036V16.3655C15.9213 10.745 11.6406 7.80376 7.52297 7.80376Z" fill="url(#paint1_linear_0_10)"/>
</g>
<defs>
<linearGradient id="paint0_linear_0_10" x1="14.8038" y1="7.89469" x2="14.8038" y2="15.7894" gradientUnits="userSpaceOnUse">
<stop stop-color="#27CBA7"/>
<stop offset="1" stop-color="#1D97FF"/>
</linearGradient>
<linearGradient id="paint1_linear_0_10" x1="9.11996" y1="7.89474" x2="9.11996" y2="15.7895" gradientUnits="userSpaceOnUse">
<stop stop-color="#1D97FF"/>
<stop offset="1" stop-color="#0B61DD"/>
</linearGradient>
</defs>
</svg>
