<svg preserveAspectRatio="none" width="100%" height="100%" overflow="visible" style="display: block;" viewBox="0 0 32 32" fill="none" xmlns="http://www.w3.org/2000/svg">
<g id="Logo">
<path id="Path 2" d="M24.1046 10.4043H20.1393C17.7975 10.4043 12.5156 9.21956 14.0767 2.66667C13.1019 3.05238 12.2656 3.72218 11.6762 4.58915C11.0868 5.45611 10.7716 6.4802 10.7715 7.52853V9.44569C10.7715 9.78117 10.7829 10.1093 10.8057 10.4302C15.7986 10.7643 20.741 14.3201 21.1947 20.8355C21.4528 20.8531 21.7111 20.8619 21.9696 20.8619H24.1046C25.4913 20.8619 26.8212 20.311 27.8018 19.3305C28.7823 18.3499 29.3332 17.02 29.3332 15.6333C29.3332 14.2466 28.7823 12.9167 27.8018 11.9361C26.8212 10.9556 25.4913 10.4047 24.1046 10.4047V10.4043Z" fill="url(#paint0_linear_0_22)"/>
<path id="Path 3" d="M10.0306 10.405H7.89553C6.50882 10.405 5.17891 10.9559 4.19836 11.9364C3.21781 12.917 2.66694 14.2469 2.66694 15.6336C2.66694 17.0203 3.21781 18.3502 4.19836 19.3308C5.17891 20.3113 6.50882 20.8622 7.89553 20.8622H11.8607C14.2022 20.8622 19.4841 22.047 17.9233 28.6001C18.898 28.2143 19.7343 27.5444 20.3236 26.6775C20.913 25.8105 21.2282 24.7864 21.2284 23.7381V21.8207C21.2284 14.3267 15.5209 10.405 10.0306 10.405Z" fill="url(#paint1_linear_0_22)"/>
</g>
<defs>
<linearGradient id="paint0_linear_0_22" x1="19.739" y1="10.5262" x2="19.739" y2="21.0526" gradientUnits="userSpaceOnUse">
<stop stop-color="#27CBA7"/>
<stop offset="1" stop-color="#1D97FF"/>
</linearGradient>
<linearGradient id="paint1_linear_0_22" x1="12.16" y1="10.5263" x2="12.16" y2="21.0526" gradientUnits="userSpaceOnUse">
<stop stop-color="#1D97FF"/>
<stop offset="1" stop-color="#0B61DD"/>
</linearGradient>
</defs>
</svg>
