<svg preserveAspectRatio="none" width="100%" height="100%" overflow="visible" style="display: block;" viewBox="0 0 24 24" fill="none" xmlns="http://www.w3.org/2000/svg">
<g id="admin_panel_settings">
<mask id="mask0_0_461" style="mask-type:alpha" maskUnits="userSpaceOnUse" x="0" y="0" width="24" height="24">
<rect id="Bounding box" width="24" height="24" fill="var(--fill-0, #D9D9D9)"/>
</mask>
<g mask="url(#mask0_0_461)">
<path id="admin_panel_settings_2" d="M17 21.5C15.7513 21.5 14.6892 21.0622 13.8135 20.1865C12.9378 19.3108 12.5 18.2487 12.5 17C12.5 15.7513 12.9378 14.6892 13.8135 13.8135C14.6892 12.9378 15.7513 12.5 17 12.5C18.2487 12.5 19.3108 12.9378 20.1865 13.8135C21.0622 14.6892 21.5 15.7513 21.5 17C21.5 18.2487 21.0622 19.3108 20.1865 20.1865C19.3108 21.0622 18.2487 21.5 17 21.5ZM4.5 11.1V6.59625C4.5 6.21792 4.60967 5.87658 4.829 5.57225C5.04817 5.26775 5.33017 5.04692 5.675 4.90975L11.3672 2.78475C11.5814 2.70775 11.7923 2.66925 12 2.66925C12.2077 2.66925 12.4186 2.70775 12.6328 2.78475L18.325 4.90975C18.6698 5.04692 18.9518 5.26775 19.171 5.57225C19.3903 5.87658 19.5 6.21792 19.5 6.59625V9.90575C19.5 10.1634 19.391 10.3733 19.173 10.5355C18.955 10.6978 18.714 10.7469 18.45 10.6827C18.2142 10.6186 17.9751 10.5721 17.7327 10.5432C17.4904 10.5144 17.2462 10.5 17 10.5C15.2013 10.5 13.6683 11.1337 12.401 12.401C11.1337 13.6683 10.5 15.2013 10.5 17C10.5 17.4757 10.5545 17.9484 10.6635 18.4182C10.7725 18.8881 10.9373 19.3653 11.1578 19.85C11.2949 20.141 11.2539 20.4019 11.0348 20.6327C10.8154 20.8634 10.5602 20.9134 10.2692 20.7828C9.53725 20.4289 8.86992 19.9885 8.26725 19.4615C7.66475 18.9347 7.1225 18.3321 6.6405 17.6538C5.96867 16.7218 5.444 15.6987 5.0665 14.5845C4.68883 13.4705 4.5 12.309 4.5 11.1ZM18.0625 16.5625C18.3542 16.2708 18.5 15.9167 18.5 15.5C18.5 15.0833 18.3542 14.7292 18.0625 14.4375C17.7708 14.1458 17.4167 14 17 14C16.5833 14 16.2292 14.1458 15.9375 14.4375C15.6458 14.7292 15.5 15.0833 15.5 15.5C15.5 15.9167 15.6458 16.2708 15.9375 16.5625C16.2292 16.8542 16.5833 17 17 17C17.4167 17 17.7708 16.8542 18.0625 16.5625ZM17 20C17.423 20 17.8243 19.9192 18.2038 19.7577C18.5833 19.5962 18.9147 19.3591 19.198 19.0462C19.275 18.9526 19.3036 18.8497 19.2837 18.7375C19.2637 18.6253 19.1968 18.5391 19.0828 18.4788C18.7596 18.3159 18.4224 18.1954 18.0712 18.1173C17.7199 18.0391 17.3628 18 17 18C16.6372 18 16.2801 18.0391 15.9288 18.1173C15.5776 18.1954 15.2404 18.3159 14.9173 18.4788C14.8033 18.5391 14.7363 18.6253 14.7163 18.7375C14.6964 18.8497 14.725 18.9526 14.802 19.0462C15.0853 19.3591 15.4167 19.5962 15.7962 19.7577C16.1757 19.9192 16.577 20 17 20Z" fill="var(--fill-0, #454545)"/>
</g>
</g>
</svg>
