<svg preserveAspectRatio="none" width="100%" height="100%" overflow="visible" style="display: block;" viewBox="0 0 122.143 72" fill="none" xmlns="http://www.w3.org/2000/svg">
<g id="Frame">
<path id="Vector" d="M97.5174 10.6775C96.9742 10.6326 96.4279 10.676 95.8989 10.8059C95.4712 10.8059 93.5838 11.4595 93.8008 11.2318C94.6387 10.3333 95.9814 10.2923 96.7023 10.0006C97.089 9.84897 97.3233 9.87793 97.1944 9.56896C97.0662 9.2599 97.3123 9.15449 96.4798 9.38809C95.0318 9.74864 93.6482 10.3271 92.3763 11.1037C92.2356 11.1872 92.0886 11.2594 91.9369 11.3196C91.1107 11.6755 90.5007 12.4864 89.768 13.07C89.4803 13.0992 89.3577 12.9125 88.9764 13.1399C88.4254 13.1399 88.1793 12.6091 87.8044 12.3056C87.3822 12.1771 87.2179 11.722 86.8485 11.436C84.5609 9.19549 81.9251 7.27598 79.6446 5.07054C78.9466 4.18935 78.6421 5.03541 77.9562 5.07054C77.6074 4.93594 77.233 4.88037 76.8601 4.9079C76.8601 4.9079 76.3735 4.62198 76.479 5.28719C76.6106 8.15556 77.1211 10.9942 77.9973 13.73C78.162 14.0531 78.2009 14.4254 78.1068 14.7753C78.0127 15.1253 77.792 15.4284 77.4872 15.6264C77.2293 15.9998 77.4872 16.5131 77.2117 16.8924C77.0885 17.085 76.8248 17.2541 76.7486 17.476C76.6724 17.6978 77.159 17.8552 77.2411 18.0127C77.3231 18.1701 77.6924 18.3569 77.9094 18.5146C78.0852 18.5146 78.2434 18.3688 78.4196 18.3337C79.0996 18.0303 78.8241 17.2135 79.0058 16.6423C79.1758 16.3064 79.2565 15.9328 79.2401 15.5571C79.1506 14.439 78.8835 13.342 78.4486 12.3071C78.4038 11.3137 78.2182 10.3315 77.8977 9.38966C77.8977 8.63695 76.9539 6.23442 77.71 5.99989C80.2366 8.18194 82.3999 11.1462 84.8966 13.4915C85.6481 14.04 86.5207 15.5044 87.1008 15.3236C88.6423 15.0259 89.3514 15.3236 89.5275 14.2673C89.7971 13.9872 90.1139 14.1447 90.3419 14.2023C91.4267 14.1206 92.5053 13.823 93.6192 13.7238C94.1694 13.6128 96.0694 13.7238 95.4186 12.796C94.0232 12.6094 92.5406 13.4379 91.1705 13.1812C91.1705 12.9129 91.4928 12.8885 91.6861 12.8885C92.7466 12.585 94.0303 11.7217 95.5545 11.5932C96.0592 11.576 96.5615 11.5134 97.0552 11.4064C97.2533 11.3741 97.4491 11.3293 97.6417 11.2721C97.6731 11.0655 97.6283 10.8545 97.5174 10.6775ZM87.3241 14.1376C84.9029 11.8736 82.1075 9.11974 79.6509 6.5815C79.5456 6.29557 79.0646 5.93971 78.8712 5.72958C78.7538 5.61865 78.8712 5.53701 78.965 5.43682C80.5541 6.73799 82.043 8.15588 83.4195 9.67852C83.5209 9.78949 83.6302 9.89288 83.7465 9.98789C83.8338 9.98585 83.9202 9.99571 84.0043 10.0172C84.057 10.0464 84.0397 10.268 84.057 10.2855C84.9131 11.0382 86.3666 12.2168 87.1637 13.0921C87.6692 13.624 87.7218 14.0325 87.3241 14.1376ZM55.6706 27.702C55.3013 27.8304 55.6052 28.9273 55.2016 29.2016C54.5099 29.5108 54.7503 30.4151 54.217 30.8468C54.0236 31.0277 53.8595 31.2668 53.5664 31.1852C53.2218 31.4192 52.8257 31.5672 52.4115 31.617C51.9974 31.6668 51.5773 31.6167 51.1866 31.471C50.6942 31.3253 48.7304 30.8874 49.3285 31.9085C49.4403 31.8788 49.5589 31.8874 49.6653 31.9329C49.7716 31.9783 49.8595 32.0582 49.9148 32.1593C50.3134 32.5328 50.9053 32.3871 51.3801 32.5497C53.672 33.6817 56.1513 31.1142 55.917 28.8089C55.7 28.3187 56.3157 27.9336 55.6591 27.7004L55.6706 27.702ZM61.1336 7.93401C61.2392 8.1907 61.4736 8.22678 61.5912 8.46493C61.9605 8.90241 62.3883 8.28407 61.9428 7.9981C61.8608 7.71219 62.148 7.30363 62.4703 7.41456C62.6402 7.47279 62.8337 7.747 63.0094 7.5837C63.3846 7.43797 63.1559 7.08764 63.0094 6.82514C62.8043 6.39934 62.2251 6.34664 62.0539 5.90913C61.5732 5.55327 61.1336 4.783 60.5415 4.68379C60.2954 4.81813 59.797 4.95214 59.9553 5.26735C60.4419 6.14269 60.6644 7.08179 61.1215 7.93471L61.1336 7.93401ZM64.2229 18.8275C63.4275 19.8549 62.7657 20.9782 62.2533 22.1708C62.2533 23.4251 61.7304 24.2012 61.8487 25.3039C62.0911 25.4022 62.3625 25.4022 62.6049 25.3039C63.3787 24.6446 62.464 21.3654 65.9167 18.1682C66.0572 18.0338 66.2274 17.7128 66.4209 17.9697C66.55 18.5533 65.7585 18.8565 65.7 19.4517C64.6899 21.029 64.2494 22.9017 64.4513 24.7613C64.8434 24.9773 64.9438 24.7613 65.2134 24.6856C65.7996 24.2481 65.6298 22.6142 65.7117 22.0423C65.8098 21.0564 67.1539 18.7865 67.6169 18.0514C67.8396 17.8616 68.0883 17.7045 68.3555 17.5846C68.6251 17.5147 68.8422 17.0827 69.1294 17.2593C69.3229 17.516 68.9477 17.7437 68.7836 17.9069C68.5074 18.2543 68.3328 18.6708 68.2794 19.1105C68.2488 19.2091 68.2096 19.3048 68.162 19.3965C67.6578 20.3476 66.4797 23.4808 67.4235 24.1925C67.5585 24.2901 67.6463 24.2575 67.881 24.2507C68.6137 24.2507 67.9278 22.7046 68.2385 21.9926C69.5104 19.6587 68.8248 18.1418 71.0163 16.6653C71.6026 16.292 71.7725 16.747 71.3503 17.1497C70.8637 18.229 69.749 21.1699 70.1781 22.1149C70.0666 22.2547 69.9552 22.7566 70.2483 22.9141C70.2432 22.972 70.2555 23.0301 70.2836 23.081C70.3119 23.132 70.3546 23.1734 70.4065 23.2C71.8719 23.5253 71.145 20.7727 71.6725 19.9325C71.9068 17.8321 72.13 16.6243 73.7359 15.6264C74.2284 15.5155 74.797 15.6264 75.2425 15.3287C75.6117 14.8444 76.2097 14.5936 76.4146 13.9866C76.6195 13.3796 76.0921 13.403 76.3444 12.7265C76.2564 12.0433 76.2741 11.3671 76.2388 10.6772C75.8457 9.84083 75.3829 9.03874 74.8555 8.27914C74.2693 8.27914 74.5156 7.92916 74.3222 7.6956C72.9642 7.45257 71.5947 7.27885 70.2189 7.17514C69.8084 6.83099 69.2343 6.94159 68.7536 6.74935C68.3725 6.65176 68.2379 6.24158 67.8157 6.24158C66.9552 6.15933 66.1261 5.87759 65.3948 5.41893C64.0935 4.66622 62.8458 3.89594 62.3758 3.66856C62.118 3.53422 61.8951 3.89041 62.4412 4.63141C63.0274 5.00484 63.4434 5.03997 63.7543 5.52985C63.801 5.80992 65.0908 6.46928 65.7705 6.50993C65.8831 6.61469 66.0162 6.6952 66.1614 6.74641C66.3067 6.79763 66.461 6.81845 66.6147 6.80758C66.4264 7.01667 66.2574 7.24224 66.1097 7.48157C66.0219 7.639 65.465 7.99489 65.8519 8.13506C66.4382 8.28665 67.464 6.3847 68.1206 8.03003C68.4313 8.78854 66.5085 8.24596 65.9284 9.65222C65.7934 9.82722 65.5768 9.93224 65.5592 9.62295C65.4418 9.44209 65.2075 9.43036 65.0435 9.30772C64.4572 8.87603 63.8712 9.62295 63.285 9.69284C62.0013 10.5214 61.4151 9.79795 60.7059 8.67177C59.8618 7.27728 59.5337 5.65541 58.8595 4.24334C58.5658 3.59111 58.2385 2.95433 57.8791 2.33555C57.6505 2.09727 57.4727 1.81546 57.3563 1.50705C57.4794 1.29691 57.4794 1.29691 57.7549 1.2852C58.0304 1.27349 58.5464 1.86876 58.9271 1.75199C59.1147 1.75199 59.7889 1.95041 59.6834 1.55942C59.449 0.730914 58.0363 0.648616 57.3958 0.246563C57.2053 0.128488 56.9949 0.0455186 56.7749 0.00162354C56.5462 0.0800666 56.3434 0.219336 56.1886 0.404327C56.2648 2.06719 57.4958 3.57261 58.0186 5.07217C58.4523 6.16904 58.6634 7.3186 59.1441 8.37446C59.2027 8.46196 59.449 8.56706 59.4667 8.67209C59.4843 8.77719 59.2497 8.88809 59.3376 9.03381C59.754 9.41314 59.9238 10.0315 60.3281 10.4576C60.5392 10.7786 61.1663 10.5744 61.5004 10.6795C61.9196 10.9717 62.3911 11.1815 62.8896 11.2975C63.6046 11.3385 63.6925 10.3756 64.3082 10.2299C64.5778 10.335 64.9882 10.5552 65.2986 10.3642C66.083 10.1134 65.7617 10.8847 65.5977 11.2685C65.6797 11.572 65.2869 12.2021 65.6856 12.3306C66.0843 12.4591 66.3948 12.1029 66.4418 11.6537C66.4418 11.4611 66.4418 11.3853 66.4944 11.3096C66.5471 11.2337 66.7055 11.3678 66.7464 11.3096C66.7872 11.2513 66.8696 11.2444 66.9098 11.1811C67.0618 10.959 67.1913 10.7225 67.2967 10.4751C68.0588 9.59979 69.5124 8.99319 70.6202 8.68382C71.4291 8.88809 72.6895 8.46196 73.1584 9.3139C73.3461 9.89749 74.1199 9.69316 74.2428 10.2357C74.4947 11.4025 74.9169 12.949 73.9029 13.8357C73.3166 14.349 72.3964 14.3724 71.7107 14.6349C71.1988 14.9362 70.6514 15.1732 70.081 15.3408C68.7154 15.9244 67.15 15.4166 65.8722 16.0294C65.4735 16.2685 65.1277 16.613 64.6999 16.8172C64.3752 16.9872 64.0248 17.1034 63.6624 17.1614C63.2461 17.2548 63.1641 17.6168 62.9761 17.6747C62.5248 17.8205 62.2553 17.2489 61.8039 17.1669C61.3604 17.1085 60.9109 17.1085 60.4673 17.1669C59.5897 17.3185 58.6935 17.3304 57.8121 17.2021C57.4548 17.0505 57.1081 16.8752 56.7745 16.6771C56.5284 16.5896 56.0827 16.4786 56.0827 16.4786C56.0827 16.4786 55.1677 17.0622 54.7288 16.934C54.418 16.8524 54.5059 16.2688 53.9667 16.1579C53.6131 16.0525 53.2528 15.9707 52.8883 15.9129C52.4463 15.9251 52.0067 15.8437 51.5988 15.6739C51.1942 15.4521 50.8954 15.038 50.4265 14.886C50.0749 14.7692 49.6644 14.886 49.4461 14.5009C49.2889 14.158 49.0435 13.8625 48.7347 13.6442C48.4259 13.426 48.0647 13.2928 47.6877 13.258C47.4706 13.258 47.2831 13.5322 47.1367 13.4206C46.9902 13.309 47.2069 13.123 47.0713 12.9831C46.7374 12.639 46.4206 12.3062 46.069 11.9796C45.4827 11.0871 44.6798 11.3144 43.953 10.8128C43.3667 10.416 43.0854 9.64604 42.2883 9.64604C41.2331 9.06245 40.7936 7.80815 39.539 7.44643C38.273 6.81636 37.3759 5.47423 35.9867 5.21172C34.7553 4.82528 33.9583 2.91749 32.5687 2.78314C31.7482 2.42728 30.8103 2.42142 30.0717 1.82615C29.6013 1.64435 29.1146 1.50754 28.6181 1.41759C28.489 1.55194 28.5596 1.82615 28.6181 2.00115C29.4211 2.75972 30.5175 3.03979 31.4903 3.54138C32.0766 3.81559 32.7975 3.74566 33.1727 4.32207C33.7935 4.83536 34.6851 5.44821 35.2886 6.03177C35.6583 6.06614 36.0151 6.18384 36.3321 6.37592C36.4903 6.65013 36.6194 6.95948 37.0063 6.90093C38.0216 7.57585 39.0001 8.30426 39.9373 9.08296C41.5553 10.1216 43.0791 11.2126 44.6269 12.3094C46.3386 12.2044 46.4265 14.2758 47.7337 14.9176C48.5485 15.3668 49.7618 15.1508 50.2955 16.0844C50.6353 16.5922 49.6448 16.6679 50.0494 17.1406C50.3131 17.6832 50.9112 16.8957 51.0869 17.8887C51.1558 18.2793 51.1235 18.6809 50.9932 19.0556C50.601 19.9664 49.4164 20.2224 48.7363 20.9461C47.4403 21.238 46.1685 21.6281 44.9321 22.1129C44.6652 22.1908 44.381 22.1868 44.1164 22.1014C43.8519 22.016 43.6194 21.8533 43.4491 21.6344C43.3035 21.3186 43.22 20.978 43.203 20.6309C42.8228 18.8191 42.1666 17.0758 41.257 15.4615C40.8072 14.4023 40.3044 13.3663 39.7504 12.3572L38.5782 10.8935C38.3862 10.6583 38.1787 10.4362 37.9573 10.2283C37.7579 10.1349 37.8223 10.0532 37.9573 9.94821C38.0923 9.8431 37.805 9.72047 37.9573 9.58649C38.1096 9.4525 38.3089 9.67398 38.356 9.58649C38.393 9.48991 38.3971 9.38387 38.3676 9.28471C38.3381 9.18563 38.2765 9.09892 38.1926 9.03803C37.6063 8.51306 37.3779 9.20723 36.1338 9.74982C35.6531 9.95995 34.3753 9.53961 34.6802 10.1583C34.7328 10.2559 35.0318 10.4736 34.8435 10.6368C34.6554 10.8002 34.4331 10.5845 34.2926 10.6368C32.5334 11.1794 30.6576 12.8188 28.9403 13.3907C29.0383 12.9239 28.5828 13.4258 28.5828 13.5192C28.5809 13.7147 28.5966 13.91 28.6299 14.1028C29.474 14.6453 30.4881 13.4375 31.2795 13.2684C31.9773 13.0583 32.5573 13.3035 33.091 12.72C33.2492 12.5098 33.3547 12.1891 33.6772 12.1891C35.6877 11.571 33.4779 13.4843 33.4312 14.202C33.2907 14.6921 32.8449 15.0246 32.892 15.5682C32.9152 15.884 32.8753 16.2013 32.7747 16.5017C32.6741 16.8021 32.5146 17.0797 32.3057 17.3185C32.1574 17.654 32.0739 18.0143 32.0596 18.3806C32.089 18.7709 32.6805 18.7833 32.7864 18.4216C33.2308 17.7712 33.5724 17.057 33.7994 16.3036C33.9227 15.5626 34.3269 15.1368 34.4619 14.5532C34.4972 14.3607 35.089 12.9545 35.2357 13.0189C35.7867 13.1881 34.9897 15.7962 34.802 16.2923C34.9253 16.8 34.2158 18.591 34.2158 19.6706C34.2158 20.3476 34.3681 20.3941 34.802 20.3882C35.5583 19.7231 35.2416 18.9179 35.4822 18.1477C35.705 16.7766 36.1798 15.4228 36.2383 14.011C36.134 13.4751 36.2081 12.92 36.4495 12.4298C36.4209 11.9259 36.5112 11.4224 36.7132 10.9595C37.2174 10.4869 37.4282 11.0061 37.604 11.4263C37.6014 11.4417 37.6041 11.4575 37.6116 11.4712C37.619 11.4849 37.6308 11.4958 37.6452 11.5021C37.8263 11.8082 37.9906 12.1237 38.1377 12.4474C38.671 12.7856 38.4775 13.3341 39.0873 13.6902C39.2106 14.1161 39.3922 14.6297 39.8435 14.7872C40.8693 15.8024 40.2948 17.4418 41.2092 18.5504C41.2585 19.0989 41.3386 19.6443 41.4494 20.1839C41.5554 20.6717 41.7229 21.1442 41.9478 21.5901C42.0914 22.0433 42.2882 22.4782 42.5341 22.8854C42.5812 23.0722 42.6219 23.253 42.8507 23.2882C43.7293 23.4332 44.6306 23.3467 45.4651 23.0373C46.0514 22.985 46.5494 22.4843 47.1887 22.4843C48.0269 22.566 48.6481 21.7785 49.4337 21.6734C50.171 21.0074 51.0074 20.4588 51.9131 20.047C52.436 19.8079 52.769 18.956 53.3435 18.8802C53.6014 19.0028 53.3435 19.2055 53.2967 19.3529C53.2265 19.6563 53.5487 19.8661 53.672 19.563C53.8353 19.4462 54.0353 19.4114 54.135 19.213C54.6216 18.4779 55.2487 18.9853 54.5805 19.563C54.1445 20.2658 53.9037 21.0712 53.8827 21.8969C53.9171 22.0741 53.9389 22.2534 53.948 22.4336C53.9069 22.5621 53.6726 22.8129 53.6667 22.889C53.4967 24.2077 54.4755 25.3456 53.9127 26.6816C53.5611 27.3409 53.5082 28.1053 52.7873 28.5604C52.2599 28.8987 52.119 29.6166 51.3746 29.4998C49.8974 29.1322 47.787 28.9572 46.4095 28.3678L46.052 28.1636C45.3838 27.7026 44.0707 27.4401 43.4494 26.9967C43.0641 26.8261 42.6902 26.6312 42.3298 26.4132C42.1187 26.2675 41.9135 26.2847 41.6968 26.1156H41.6615L41.4095 25.9288C39.9089 25.1807 38.7893 23.847 36.9955 24.465C36.8605 24.5061 36.339 24.4651 36.2746 24.5877C36.005 25.0779 36.3566 24.9904 35.8994 25.4985C35.7413 25.5685 35.8014 25.7727 35.6943 25.9129C35.6009 26.2845 35.6009 26.6733 35.6943 27.0449C35.7195 27.1193 35.7704 27.1825 35.838 27.2231C35.9056 27.2637 35.9855 27.2792 36.0635 27.2667C36.1289 27.3425 36.2269 27.3542 36.3507 27.2667C36.8664 26.9586 37.3654 26.6236 37.8455 26.2633C38.1563 25.9191 39.0177 26.1005 39.44 26.1699C39.8622 26.2391 39.9031 26.4382 40.1785 26.7534C41.6207 27.0976 42.7517 28.212 44.1001 28.7663C45.3419 29.7639 47.2069 29.7581 48.7896 29.9698C49.9246 30.5366 51.1763 30.8334 52.4461 30.837C53.0324 30.5687 53.9821 30.4344 53.9821 29.641C54.4445 28.854 54.8367 28.0282 55.1543 27.173C55.2948 27.0156 55.418 26.7586 55.3177 26.677C55.227 26.6021 55.1569 26.5055 55.1139 26.3965C55.0708 26.2873 55.0563 26.169 55.0716 26.0527C54.9601 24.145 54.6203 22.1844 55.0716 20.2952C55.2026 19.9367 55.442 19.6274 55.7569 19.4101C56.0719 19.1927 56.4468 19.0779 56.8301 19.0816C57.1242 18.9882 57.4163 18.7257 57.7209 18.8832C58.0255 19.0406 59.4386 18.1831 59.3798 19.1164C59.1454 19.805 58.5415 19.6999 58.2075 20.4933C58.0141 20.7441 57.9134 21.0769 57.6566 21.2519C57.3997 21.4269 57.715 22.0105 57.4984 22.3081C57.4357 22.4343 57.3885 22.5675 57.3578 22.705C56.9341 23.6345 56.8092 24.6718 57.0003 25.6748C57.399 25.8615 57.5337 25.8439 57.6746 25.7798C58.1494 25.5697 58.1023 24.7412 58.2196 24.222C58.6066 22.6057 58.8059 21.1237 59.9781 19.9394C60.4 19.6466 61.0859 18.3289 61.514 18.9476C61.432 19.4902 61.514 19.5311 61.2798 19.9234C61.233 19.9992 61.4089 20.086 61.3209 20.2269C61.233 20.3678 61.0395 20.2793 60.9941 20.3495C60.7214 20.7349 60.469 21.1341 60.2379 21.5456C59.5942 22.8245 59.2972 24.2485 59.3761 25.6768C59.6222 25.9978 59.9271 25.8986 60.2438 25.7643C60.83 25.4084 60.4666 24.0139 60.5837 23.3663C60.8284 21.8859 63.6713 17.663 64.2222 18.8285L64.2229 18.8275ZM77.1189 34.5522C76.48 33.8577 77.2127 33.6069 76.6382 33.6537C75.4365 33.2103 74.1937 32.8659 72.9568 32.5217C72.3705 32.3591 71.7477 32.1964 71.1513 32.0139C70.5548 31.8314 69.979 31.512 69.3927 31.3253C68.8163 31.1245 68.2292 30.955 67.6343 30.8176C67.147 30.7767 66.6728 30.6398 66.2392 30.4148C65.7163 30.0472 65.0023 30.1465 64.4807 29.8313C64.2813 29.6036 63.5487 29.8313 63.5781 29.4114C66.2745 28.5006 68.7951 27.3295 71.6555 27.0774C72.8277 26.5696 73.8068 25.0236 74.9849 24.481C75.6941 24.2243 75.9228 23.349 76.5735 23.0107C77.0189 22.8181 77.4996 23.1681 77.946 23.069C78.1454 22.9714 78.1689 22.3104 78.2917 22.1529C78.878 21.692 77.8698 21.0908 77.5826 20.7701C77.3071 20.1865 75.3022 22.6197 74.9683 22.9466C72.9343 25.1286 70.7245 25.8172 68.0631 26.6575C65.8161 27.3464 63.6396 28.245 61.5624 29.3414C60.8591 29.989 62.3771 29.8258 62.7346 30.205C63.0042 30.4978 62.5004 30.5609 62.3242 30.6718C61.316 31.2554 64.0827 31.7921 64.4284 32.2882C67.5575 33.8179 70.8254 35.0487 74.1882 35.9639C74.8624 36.2264 74.2293 36.74 74.3516 37.2299C74.1993 37.726 74.1882 38.3619 74.029 38.8694C73.6071 40.1939 73.6774 41.8802 73.3372 42.8603C72.9503 43.9864 72.4931 45.1301 72.9326 45.3926C73.2729 45.5506 73.6533 45.6021 74.0234 45.54C74.0677 45.5337 74.1101 45.5178 74.1475 45.4934C74.1848 45.469 74.2164 45.4368 74.2399 45.3989C74.2634 45.361 74.2782 45.3185 74.2833 45.2743C74.2884 45.2301 74.2837 45.1853 74.2696 45.1431C74.164 44.8982 74.3281 44.8178 74.3457 44.6998C74.5568 43.4454 75.13 39.8745 75.2193 37.8264C75.1431 37.5698 75.2846 37.1206 75.5532 37.4765C75.4784 38.1977 75.5004 38.9257 75.6186 39.6412C75.6919 40.0455 75.7233 40.456 75.7124 40.8666C75.7099 41.1726 75.7255 41.4784 75.7591 41.7826C75.8117 42.1443 75.8999 42.4884 75.976 42.8388C76.0346 43.1013 75.7591 43.3114 75.976 43.4568C76.1931 43.6023 76.1395 44.1568 76.2516 44.3963C76.3277 45.0963 77.1366 44.8864 77.3009 44.3963C77.9751 43.7427 76.9901 42.4358 77.1016 41.578C76.8378 40.1894 76.6797 38.9107 76.3336 37.5519C76.3809 37.148 76.3472 36.7389 76.2344 36.3479C76.1218 35.9571 75.9323 35.5924 75.6771 35.2749C71.5481 34.1058 67.499 32.6733 63.5549 30.9864C63.2281 30.9047 63.5549 30.4903 63.6604 30.5079C66.779 31.4997 69.7742 32.9235 73.0395 33.6879C73.5039 33.8078 73.9569 33.968 74.3934 34.1663C75.0143 34.4874 75.8823 34.2597 76.3924 34.8433C76.7035 35.4285 76.9135 36.0617 77.0133 36.7162C77.0719 37.0487 77.1248 37.3873 77.1892 37.7198C77.2535 38.0522 77.4002 38.3557 77.4646 38.6826C77.529 39.0095 77.6464 40.1006 78.0509 40.1412C78.4555 40.1819 78.8071 40.3279 79.0241 39.9194C78.814 38.9768 78.5358 38.0506 78.1917 37.1479C78.2084 36.0992 77.6633 35.3758 77.1182 34.5531L77.1189 34.5522ZM41.9475 24.4589C43.6239 24.9793 46.2383 25.0425 47.4105 23.5481C47.5279 22.5911 46.4955 23.4547 46.0566 23.483C44.9955 23.9439 43.4305 24.1661 42.4164 23.6115C42.2932 23.4306 41.889 23.7689 42.0354 24.0201C42.0589 24.2608 41.7834 24.208 41.9475 24.4589Z" fill="var(--fill-0, black)"/>
<path id="Vector_2" d="M38.6942 26.9213C38.542 26.7755 38.4482 26.9213 38.2956 27.0029C36.8769 27.9013 36.2792 28.2631 34.8782 29.2201C34.7148 29.3658 33.706 30.2763 33.9632 30.3869C34.2623 30.7021 34.6433 30.2643 35.0126 30.2643C35.8802 29.6807 36.6772 29.2256 37.5331 28.7588C38.3129 28.1054 38.7054 28.6131 39.2508 27.7085C39.7845 27.3002 38.8819 27.1083 38.6942 26.9213ZM32.6214 31.9099C31.5819 33.1856 30.3378 34.2817 28.9394 35.1539C28.9864 35.7375 28.9394 36.1691 29.1913 36.175C29.6123 36.0082 30.007 35.7822 30.3636 35.5039C30.6096 34.9672 30.8149 35.2239 31.0142 35.0606C32.4446 33.8938 33.1479 32.5233 34.2733 31.6415C34.4854 30.1595 33.0374 31.3845 32.6214 31.9099ZM33.6531 29.7568C33.729 29.5414 33.7452 29.3096 33.7001 29.0857C32.7851 29.0857 31.291 29.9611 30.4822 30.3287C30.2358 30.4368 29.9664 30.4829 29.6979 30.463C29.4106 30.4337 29.1116 30.463 29.1116 30.7782C29.1306 30.9299 29.1126 31.084 29.059 31.2274C28.9182 31.3731 28.5783 31.1298 28.6669 31.6708C29.4184 32.4411 31.4276 30.504 32.2309 30.4047C32.0675 31.0228 31.3047 31.4083 30.9355 31.6766C30.3492 32.3942 28.626 32.5874 28.7198 33.6836C28.6845 33.9579 28.5675 34.3254 28.9894 34.2672C29.8253 33.7887 32.9554 30.9587 33.6531 29.7568Z" fill="var(--fill-0, black)"/>
<path id="Vector_3" d="M92.6634 69.6254L88.7651 64.3275C90.6415 63.5224 92.7687 62.2561 92.6751 59.3447C92.5399 55.1486 89.662 54.0937 85.248 54.2053H81.1108C81.0951 54.205 81.0801 54.2101 81.0683 54.2196C81.0566 54.2292 81.0487 54.2427 81.0455 54.2576C81.0455 54.3334 81.1627 54.4502 81.2507 54.5319C81.6202 54.8818 81.6202 57.3091 81.6202 58.0853V68.8268C81.6626 69.5828 81.5754 70.3406 81.3623 71.0674C81.1745 71.4873 81.0573 71.4873 81.0809 71.5693C81.0848 71.5839 81.0927 71.5969 81.1045 71.6063C81.1163 71.6157 81.1312 71.6211 81.1462 71.6217H84.3873C84.403 71.6211 84.4171 71.6157 84.4289 71.6063C84.4407 71.5969 84.4494 71.5839 84.4525 71.5693C84.4824 71.476 84.355 71.5111 84.1263 70.9857C83.9989 70.2788 83.9298 69.5626 83.9211 68.8444V56.2464C83.9211 55.4472 84.3197 55.3828 85.3219 55.3711C88.6982 55.3301 90.1989 57.1214 90.217 59.5312C90.217 62.2561 88.7509 63.5396 85.7559 63.7498L90.4858 70.454C90.7806 70.9121 91.1847 71.2898 91.6626 71.5527C92.1414 71.8156 92.6775 71.9554 93.2238 71.9593C93.756 71.9598 94.2874 71.9148 94.8126 71.825C94.8306 71.8245 94.8495 71.8187 94.8644 71.8082C94.8802 71.7977 94.8919 71.7831 94.8998 71.766C94.9069 71.7489 94.9092 71.7301 94.9061 71.7117C94.903 71.6934 94.8951 71.6762 94.8825 71.6624C94.0241 71.1257 93.2726 70.4353 92.6673 69.626L92.6634 69.6254Z" fill="var(--fill-0, black)"/>
<path id="Vector_4" d="M52.7389 54.2219V56.6023C52.7389 56.6023 52.7389 56.684 52.7915 56.684C52.8441 56.684 53.0669 56.4914 53.3777 56.3586C54.2046 56.175 55.0516 56.0966 55.8983 56.1254H58.6591V68.8217C58.7099 69.5756 58.6245 70.3324 58.4071 71.0563C58.1843 71.529 58.1199 71.4649 58.1375 71.5583C58.1552 71.6516 58.2898 71.6399 58.2898 71.6399H61.5078C61.524 71.64 61.5396 71.6341 61.5517 71.6233C61.5638 71.6126 61.5714 71.5977 61.5731 71.5817C61.5731 71.4942 61.444 71.5001 61.2392 70.9458C61.0808 70.2414 61.0099 69.5204 61.028 68.7989C61.028 65.6188 61.028 57.0538 61.028 56.126H63.7888C64.6355 56.0973 65.4825 56.1757 66.3094 56.3593C66.6361 56.4936 66.8136 56.6846 66.8956 56.6846C66.9777 56.6846 66.9424 56.603 66.9424 56.603V54.2219H52.7389Z" fill="var(--fill-0, black)"/>
<path id="Vector_5" d="M79.5215 68.9719C79.4101 68.9719 79.2401 69.2286 78.8065 69.3863C78.1391 69.5618 77.4509 69.6461 76.7608 69.6371H71.2562V63.54H75.1601C76.095 63.5176 77.0304 63.5468 77.962 63.6275C78.4895 63.7325 78.4954 63.9134 78.583 63.9075C78.5946 63.9093 78.6064 63.9067 78.6161 63.9002C78.6259 63.8937 78.6328 63.8838 78.6356 63.8725V61.3517C78.6357 61.3449 78.6345 61.338 78.6319 61.3316C78.6293 61.3251 78.6253 61.3194 78.6205 61.3144C78.6155 61.3096 78.6097 61.3057 78.6032 61.3032C78.5968 61.3006 78.5899 61.2993 78.583 61.2994C78.4141 61.4654 78.1967 61.5737 77.962 61.6088C77.0277 61.6772 76.0904 61.6946 75.1542 61.6611H71.2562V56.0773H76.4195C77.106 56.0651 77.7908 56.1495 78.4536 56.3281C78.7875 56.4565 78.9637 56.6605 79.0398 56.6605C79.1159 56.6605 79.0924 56.5789 79.0924 56.5789V54.2219H68.4252C68.4252 54.2219 68.3431 54.2219 68.3431 54.2742C68.3431 54.3266 68.4252 54.35 68.6186 54.7761C68.8335 55.4825 68.9189 56.2217 68.8706 56.9582V68.8961C68.9216 69.6346 68.8362 70.3762 68.6186 71.084C68.431 71.4867 68.349 71.5156 68.3431 71.5859C68.3372 71.6562 68.4134 71.6383 68.4134 71.6383H79.3104L79.5802 69.0943C79.5802 69.0943 79.5975 68.9719 79.5215 68.9719Z" fill="var(--fill-0, black)"/>
<path id="Vector_6" d="M121.199 71.4516L120.818 71.1364C120.3 70.6665 119.839 70.14 119.44 69.5669L114.75 62.7635L120.026 55.4352C120.237 55.1451 120.472 54.8738 120.73 54.6242L121.005 54.3617C121.015 54.3497 121.022 54.3349 121.024 54.3192C121.026 54.3035 121.023 54.2876 121.016 54.2734C121.009 54.2592 120.998 54.2472 120.985 54.2391C120.971 54.2309 120.955 54.2269 120.939 54.2273H117.131C117.116 54.228 117.101 54.2334 117.089 54.2428C117.077 54.2522 117.069 54.2651 117.066 54.2798C117.175 54.4548 117.231 54.6572 117.229 54.8633C117.213 55.0149 117.186 55.1651 117.146 55.3125C117.117 55.4059 117.081 55.4992 117.041 55.6053C117.029 55.6425 117.01 55.6778 116.988 55.7104C116.678 56.2471 113.776 60.6465 113.571 60.845C113.378 60.6524 110.517 56.358 110.108 55.6756C109.644 54.5787 110.108 54.3627 110.061 54.281C110.057 54.2665 110.048 54.2535 110.036 54.2441C110.024 54.2346 110.01 54.2292 109.995 54.2287H103.637C103.621 54.2291 103.606 54.2344 103.593 54.2438C103.581 54.2532 103.571 54.2662 103.567 54.281C103.567 54.3627 103.977 54.5738 103.531 55.658C103.104 56.3697 100.23 60.8509 100.014 61.0434C99.8153 60.8509 96.7259 56.2292 96.4036 55.6814C95.9406 54.5845 96.4036 54.3685 96.3564 54.2869C96.3533 54.2723 96.3446 54.2594 96.3329 54.25C96.3211 54.2405 96.3061 54.2351 96.2912 54.2345H92.3591C92.3465 54.2353 92.3339 54.2394 92.3237 54.2464C92.3135 54.2535 92.3049 54.2631 92.2994 54.2745C92.2939 54.2858 92.2915 54.2984 92.2931 54.3109C92.2939 54.3234 92.2986 54.3353 92.3064 54.3454L92.6397 54.6255C93.0131 54.9406 93.3433 55.3035 93.6208 55.7048L98.7776 63.095V67.919C98.7776 68.6951 98.7368 70.5863 98.4962 71.0931C98.2564 71.5999 98.2093 71.4958 98.2093 71.5833C98.2093 71.6708 98.2855 71.6484 98.2855 71.6484H101.498C101.498 71.6484 101.579 71.6484 101.579 71.5833C101.471 71.4278 101.375 71.2639 101.292 71.0931C101.064 70.6029 101.011 68.6951 101.011 67.919V63.095C101.011 63.095 105.753 55.6616 106.585 54.8447C107.717 56.0115 112.213 62.9024 112.213 62.9024L107.224 70.0148C106.874 70.519 106.447 70.9659 105.959 71.3393L105.853 71.421C105.844 71.435 105.838 71.4512 105.837 71.468C105.836 71.4847 105.84 71.5016 105.848 71.5164C105.856 71.5314 105.867 71.544 105.882 71.5528C105.896 71.5617 105.912 71.5664 105.93 71.5668H109.698C109.714 71.5661 109.728 71.5607 109.74 71.5513C109.752 71.5419 109.76 71.529 109.764 71.5143C109.66 71.3562 109.604 71.1722 109.601 70.9835C109.633 70.6876 109.731 70.4025 109.888 70.1491C110.198 69.6124 113.199 65.0497 113.405 64.8512C113.604 65.0497 116.628 69.6124 116.922 70.1491C117.038 70.3468 117.124 70.5613 117.174 70.7851C117.217 71.0386 117.163 71.2993 117.021 71.5143C117.026 71.5286 117.036 71.5409 117.049 71.5493C117.062 71.5577 117.077 71.5617 117.091 71.5609H121.125C121.138 71.5625 121.152 71.5603 121.165 71.5546C121.178 71.5488 121.189 71.5398 121.196 71.5284C121.204 71.5169 121.209 71.5036 121.21 71.4897C121.211 71.476 121.207 71.4622 121.2 71.45L121.199 71.4516Z" fill="var(--fill-0, black)"/>
<path id="Vector_7" d="M17.5976 71.3875C17.451 71.238 17.3231 71.0714 17.2166 70.8914C16.9058 70.3606 16.2728 69.2578 15.9973 68.6509L9.70775 54.5078C9.34441 53.755 9.34441 53.755 8.981 54.5078L2.63853 68.6509C2.30543 69.4413 1.91361 70.206 1.46631 70.9386C1.3039 71.1434 1.12929 71.3382 0.943435 71.5221C0.937839 71.5318 0.934804 71.5426 0.934619 71.5538C0.934435 71.5648 0.937106 71.5757 0.94238 71.5855C0.947653 71.5953 0.955353 71.6036 0.964747 71.6096C0.974141 71.6156 0.984917 71.6191 0.996049 71.6197H4.21989C4.235 71.6192 4.24951 71.6138 4.26129 71.6043C4.27306 71.5949 4.28146 71.5819 4.28525 71.5674C4.20247 71.4425 4.14809 71.3012 4.1259 71.1533C4.10372 71.0053 4.11427 70.8543 4.15682 70.7109C4.16301 70.6631 4.17486 70.6161 4.19212 70.571C4.22826 70.4462 4.27136 70.3235 4.32119 70.2034C4.36793 70.0867 9.17477 59.3389 9.17477 59.3389C9.30974 59.053 9.34473 59.053 9.4738 59.3389C9.4738 59.3389 13.9757 69.4094 14.3039 70.1505C14.3013 70.1678 14.3013 70.1854 14.3039 70.2028C14.3731 70.3719 14.4299 70.5459 14.4737 70.7233V70.8108C14.4824 70.9082 14.4824 71.0061 14.4737 71.1035C14.4551 71.273 14.3993 71.4363 14.3104 71.582C14.3142 71.5966 14.3226 71.6096 14.3344 71.6189C14.3461 71.6284 14.3606 71.6338 14.3757 71.6344H17.6228C17.6387 71.6348 17.6544 71.6308 17.6682 71.6229C17.682 71.6151 17.6934 71.6037 17.7012 71.5899C17.7091 71.5761 17.7129 71.5605 17.7126 71.5447C17.7122 71.5288 17.7074 71.5134 17.6989 71.5001C17.6686 71.461 17.6359 71.424 17.6008 71.3891L17.5976 71.3875Z" fill="var(--fill-0, black)"/>
<path id="Vector_8" d="M49.2103 58.1253L52.3638 52.5415H49.2103V58.1253Z" fill="var(--fill-0, black)"/>
<path id="Vector_9" d="M30.2825 69.6254L26.3834 64.3275C28.2593 63.5224 30.393 62.2561 30.2933 59.3447C30.1583 55.1486 27.2802 54.0937 22.8665 54.2053H18.7289C18.7136 54.205 18.6987 54.2101 18.6867 54.2196C18.6748 54.2292 18.6666 54.2427 18.6636 54.2576C18.6636 54.3334 18.7809 54.4502 18.8688 54.5319C19.2381 54.8818 19.2381 57.3091 19.2381 58.0853V68.8268C19.2808 69.5828 19.1937 70.3406 18.9802 71.0674C18.7927 71.4873 18.6753 71.4873 18.6989 71.5693C18.7037 71.5842 18.713 71.5972 18.7256 71.6066C18.7382 71.616 18.7534 71.6212 18.7691 71.6217H22.0175C22.0331 71.6212 22.0484 71.616 22.061 71.6066C22.0736 71.5972 22.0829 71.5842 22.0877 71.5693C22.0877 71.476 21.9822 71.5111 21.7538 70.9857C21.6293 70.2784 21.5607 69.5624 21.5485 68.8444C21.5485 68.8444 21.5485 57.3966 21.5485 56.2474C21.5485 55.4481 21.9531 55.3837 22.9495 55.3721C26.326 55.3311 27.8266 57.1225 27.8443 59.5321C27.8443 62.2571 26.3789 63.5406 23.3835 63.7508L28.1139 70.4549C28.408 70.913 28.8124 71.2908 29.2905 71.5537C29.7686 71.8166 30.3052 71.9564 30.8514 71.9603C31.3838 71.9607 31.9152 71.9158 32.44 71.826C32.4587 71.8255 32.4768 71.8196 32.4922 71.8091C32.5077 71.7987 32.5199 71.7841 32.5273 71.7669C32.5346 71.7499 32.537 71.731 32.534 71.7127C32.5309 71.6943 32.5227 71.6772 32.5102 71.6633C31.6483 71.1267 30.8932 70.4364 30.2828 69.6271L30.2825 69.6254Z" fill="var(--fill-0, black)"/>
<path id="Vector_10" d="M47.4347 68.295C45.8756 69.9214 43.3667 70.4481 41.2213 70.4481C37.036 70.4481 34.105 66.7138 34.0583 62.9505C33.9998 58.2362 37.0478 55.3656 41.5321 55.3656C43.1851 55.3656 45.9811 56.4276 47.0245 58.1305C47.1432 58.4102 47.245 58.6966 47.3295 58.9883C47.3376 59.0143 47.3556 59.0362 47.3798 59.0492C47.4038 59.0623 47.4321 59.0655 47.4586 59.0582C47.468 59.0589 47.4774 59.0576 47.4863 59.0544C47.4952 59.0511 47.5032 59.0459 47.5099 59.0393C47.5166 59.0327 47.5217 59.0247 47.525 59.0159C47.5283 59.0071 47.5295 58.9977 47.5288 58.9883V54.8461C47.5288 54.8302 47.5256 54.8145 47.5194 54.8C47.5131 54.7854 47.5039 54.7723 47.4924 54.7613C47.4809 54.7504 47.4672 54.742 47.4523 54.7364C47.4374 54.731 47.4215 54.7285 47.4056 54.7293H46.5491C44.9411 54.3257 43.2984 54.0736 41.6429 53.9766C35.705 53.8949 31.8063 57.2148 31.6779 62.9736C31.5547 68.3357 35.5174 72 41.5024 72C43.3266 71.9692 45.1431 71.7561 46.9245 71.3641L47.622 68.4479C47.6406 68.423 47.6488 68.3919 47.6449 68.3611C47.6411 68.3303 47.6254 68.3022 47.6011 68.2826C47.5769 68.263 47.546 68.2535 47.515 68.2561C47.4839 68.2587 47.455 68.2731 47.4343 68.2963L47.4347 68.295Z" fill="var(--fill-0, black)"/>
</g>
</svg>
