<svg width="147.784" height="20.9192" viewBox="0 0 147.784 20.9192" fill="none" xmlns="http://www.w3.org/2000/svg">
<g id="RET_Logo_Color_Black 2" clip-path="url(#clip0_0_422)">
<g id="Group">
<path id="Vector" d="M41.7571 16.7359H38.5855L35.6838 11.8098H34.0642V16.7359H31.3649V3.17217H36.561C38.0456 3.17217 39.1928 3.57705 40.0026 4.45431C40.8123 5.26409 41.2172 6.27631 41.2172 7.49097C41.2172 8.70563 41.0148 9.178 40.5424 9.9203C40.07 10.6626 39.3952 11.135 38.518 11.4724L41.8246 16.7359H41.7571ZM36.561 5.60149H34.0642V9.24549H36.2911C36.9659 9.24549 37.5058 9.04304 37.8432 8.70564C38.1806 8.36823 38.383 7.89586 38.383 7.35601C38.383 6.81616 38.248 6.41127 37.9106 6.07386C37.5732 5.73646 37.1009 5.53401 36.561 5.53401V5.60149Z" fill="var(--fill-0, black)"/>
<path id="Vector_2" d="M52.8917 11.4718C52.8917 11.8092 52.8917 12.1466 52.8242 12.619H45.3338C45.6712 14.0361 46.6834 14.7784 48.2354 14.7784C49.7875 14.7784 50.4623 14.441 51.4746 13.7662L52.4868 15.5882C51.2046 16.5329 49.72 16.9378 48.1005 16.9378C46.4809 16.9378 44.9963 16.398 44.0516 15.3857C43.1069 14.3735 42.6345 13.1588 42.6345 11.6743C42.6345 10.1897 43.1069 8.90753 44.1191 7.89531C45.0638 6.88309 46.346 6.41072 47.898 6.41072C49.4501 6.41072 50.5298 6.88309 51.4746 7.76034C52.4193 8.6376 52.8917 9.91975 52.8917 11.4043V11.4718ZM47.8306 8.57012C47.1557 8.57012 46.6159 8.77256 46.1435 9.10997C45.6712 9.51486 45.4012 9.98723 45.1988 10.662H50.2599C50.1249 9.98723 49.855 9.51486 49.3826 9.10997C48.9103 8.70508 48.3704 8.57012 47.6956 8.57012H47.8306Z" fill="var(--fill-0, black)"/>
<path id="Vector_3" d="M61.3268 14.104L62.069 16.1284C61.2593 16.6683 60.2471 16.9382 59.0999 16.9382C57.9527 16.9382 57.0754 16.6008 56.4681 15.926C55.8608 15.2512 55.5908 14.3064 55.5908 12.9568V8.84043H53.9713V6.68103H55.6583V3.10452H58.2226V6.68103H61.5292V8.84043H58.2226V12.8218C58.2226 13.969 58.695 14.5763 59.6397 14.5763C60.5845 14.5763 60.7194 14.3739 61.3268 14.0365V14.104Z" fill="var(--fill-0, black)"/>
<path id="Vector_4" d="M71.5837 15.7911C70.774 16.6009 69.6268 16.9383 68.2097 16.9383C66.7926 16.9383 65.6454 16.5334 64.8356 15.7236C64.0258 14.9139 63.6209 13.8342 63.6209 12.4171V6.61367H66.1852V12.4171C66.1852 13.0244 66.3877 13.5642 66.7251 13.9691C67.0625 14.374 67.6023 14.509 68.2097 14.509C68.817 14.509 69.3569 14.3065 69.6943 13.9691C70.0317 13.5642 70.2341 13.0919 70.2341 12.4171V6.61367H72.7984V12.4171C72.7984 13.8342 72.3935 14.9139 71.5837 15.7236V15.7911Z" fill="var(--fill-0, black)"/>
<path id="Vector_5" d="M77.3195 16.7355H74.7552V6.74829H77.252V8.09792C77.8593 7.01822 78.8041 6.47837 80.0187 6.47837C81.2334 6.47837 80.8285 6.54585 81.2334 6.68081L81.031 9.17762C80.5586 9.04266 80.2212 8.97518 79.8163 8.97518C79.074 8.97518 78.4667 9.2451 77.9943 9.71747C77.5894 10.2573 77.3195 10.9996 77.3195 12.0118V16.803V16.7355Z" fill="var(--fill-0, black)"/>
<path id="Vector_6" d="M85.4175 16.7355H82.8532V6.74829H85.4175V8.1654C85.6875 7.69303 86.0923 7.28814 86.6997 6.95074C87.2395 6.61333 87.9143 6.47837 88.5892 6.47837C89.6689 6.47837 90.6136 6.81578 91.3559 7.55807C92.0982 8.30036 92.5031 9.31258 92.5031 10.6622V16.803H89.9388V11.4045C89.9388 10.5947 89.7363 9.9874 89.3989 9.58251C88.994 9.17762 88.5217 8.9077 87.8469 8.9077C87.172 8.9077 86.6322 9.11014 86.1598 9.58251C85.7549 10.0549 85.5525 10.6622 85.5525 11.4045V16.803L85.4175 16.7355Z" fill="var(--fill-0, black)"/>
<path id="Vector_7" d="M102.423 7.82782V6.61316H104.92V16.6004H102.423V15.4532C101.545 16.398 100.466 16.8703 99.2511 16.8703C98.0364 16.8703 96.6193 16.398 95.6746 15.3857C94.7299 14.3735 94.2575 13.0914 94.2575 11.6068C94.2575 10.1222 94.7299 8.84004 95.6746 7.89531C96.6193 6.88309 97.834 6.41072 99.2511 6.41072C100.668 6.41072 101.545 6.88309 102.423 7.89531V7.82782ZM102.49 11.6743C102.49 10.8645 102.22 10.1897 101.68 9.64982C101.141 9.10997 100.466 8.77256 99.656 8.77256C98.8462 8.77256 98.1714 9.04249 97.6315 9.64982C97.0917 10.1897 96.8893 10.8645 96.8893 11.6743C96.8893 12.484 97.1592 13.1588 97.699 13.7662C98.2389 14.306 98.9137 14.6434 99.7235 14.6434C100.533 14.6434 101.208 14.3735 101.748 13.7662C102.288 13.1588 102.558 12.484 102.558 11.6743H102.49Z" fill="var(--fill-0, black)"/>
<path id="Vector_8" d="M109.913 2.69944V16.6681H107.349V2.69944H109.913Z" fill="var(--fill-0, black)"/>
<path id="Vector_9" d="M116.594 13.1594L118.888 6.61367H121.722L117.673 17.1408C117.201 18.4229 116.594 19.3676 115.919 19.975C115.244 20.5823 114.434 20.9197 113.422 20.9197C112.41 20.9197 112.005 20.7847 111.465 20.4473L111.937 18.2879C112.41 18.4904 112.815 18.6253 113.22 18.6253C114.029 18.6253 114.637 18.0855 115.177 17.0733L115.379 16.6009L110.993 6.68115H113.962L116.526 13.2268L116.594 13.1594Z" fill="var(--fill-0, black)"/>
<path id="Vector_10" d="M131.17 8.43501L126.244 14.5083H131.372V16.6677H122.667V14.9132L127.661 8.83989H122.87V6.68049H131.102V8.43501H131.17Z" fill="var(--fill-0, black)"/>
<path id="Vector_11" d="M142.574 11.4046C142.574 11.742 142.574 12.0794 142.507 12.5518H135.016C135.354 13.9689 136.366 14.7112 137.918 14.7112C139.47 14.7112 140.145 14.3738 141.157 13.6989L142.169 15.5209C140.887 16.4657 139.403 16.8706 137.783 16.8706C136.163 16.8706 134.679 16.3307 133.734 15.3185C132.789 14.3063 132.317 13.0916 132.317 11.607C132.317 10.1224 132.789 8.84029 133.802 7.82807C134.746 6.81585 136.028 6.34348 137.581 6.34348C139.133 6.34348 140.212 6.81585 141.157 7.69311C142.102 8.57037 142.574 9.85251 142.574 11.3371V11.4046ZM137.513 8.57036C136.838 8.57036 136.298 8.77281 135.826 9.11021C135.354 9.5151 135.084 9.98747 134.881 10.6623H139.942C139.807 9.98747 139.537 9.5151 139.065 9.11021C138.593 8.70533 138.053 8.57036 137.378 8.57036H137.513Z" fill="var(--fill-0, black)"/>
<g id="Group_2">
<path id="Vector_12" d="M5.78944 5.33168C6.64662 5.33168 7.34151 4.63679 7.34151 3.77961C7.34151 2.92242 6.64662 2.22754 5.78944 2.22754C4.93225 2.22754 4.23737 2.92242 4.23737 3.77961C4.23737 4.63679 4.93225 5.33168 5.78944 5.33168Z" fill="var(--fill-0, #27CBA7)"/>
<path id="Vector_13" d="M5.78944 9.51486C6.64662 9.51486 7.34151 8.81997 7.34151 7.96279C7.34151 7.1056 6.64662 6.41072 5.78944 6.41072C4.93225 6.41072 4.23737 7.1056 4.23737 7.96279C4.23737 8.81997 4.93225 9.51486 5.78944 9.51486Z" fill="var(--fill-0, #1D97FF)"/>
<g id="Group_3">
<path id="Vector_14" d="M1.60559 3.50933C2.46277 3.50933 3.15766 2.81444 3.15766 1.95726C3.15766 1.10007 2.46277 0.405188 1.60559 0.405188C0.748404 0.405188 0.0535175 1.10007 0.0535175 1.95726C0.0535175 2.81444 0.748404 3.50933 1.60559 3.50933Z" fill="var(--fill-0, #27CBA7)"/>
<path id="Vector_15" d="M1.60564 7.69325C2.46282 7.69325 3.15771 6.99837 3.15771 6.14118C3.15771 5.284 2.46282 4.58911 1.60564 4.58911C0.748455 4.58911 0.0535683 5.284 0.0535683 6.14118C0.0535683 6.99837 0.748455 7.69325 1.60564 7.69325Z" fill="var(--fill-0, #1D97FF)"/>
</g>
<g id="Group_4">
<path id="Vector_16" d="M22.5925 5.80358C23.4497 5.80358 24.1446 5.10869 24.1446 4.25151C24.1446 3.39432 23.4497 2.69944 22.5925 2.69944C21.7353 2.69944 21.0404 3.39432 21.0404 4.25151C21.0404 5.10869 21.7353 5.80358 22.5925 5.80358Z" fill="var(--fill-0, #27CBA7)"/>
<path id="Vector_17" d="M22.5926 9.9874C23.4498 9.9874 24.1447 9.29252 24.1447 8.43533C24.1447 7.57815 23.4498 6.88326 22.5926 6.88326C21.7354 6.88326 21.0405 7.57815 21.0405 8.43533C21.0405 9.29252 21.7354 9.9874 22.5926 9.9874Z" fill="var(--fill-0, #1D97FF)"/>
</g>
<g id="Group_5">
<path id="Vector_18" d="M10.0409 3.50924C10.8981 3.50924 11.593 2.81436 11.593 1.95717C11.593 1.09999 10.8981 0.405102 10.0409 0.405102C9.18371 0.405102 8.48882 1.09999 8.48882 1.95717C8.48882 2.81436 9.18371 3.50924 10.0409 3.50924Z" fill="var(--fill-0, #27CBA7)"/>
<path id="Vector_19" d="M10.0409 7.69317C10.8981 7.69317 11.593 6.99828 11.593 6.1411C11.593 5.28391 10.8981 4.58902 10.0409 4.58902C9.18371 4.58902 8.48882 5.28391 8.48882 6.1411C8.48882 6.99828 9.18371 7.69317 10.0409 7.69317Z" fill="var(--fill-0, #1D97FF)"/>
<path id="Vector_20" d="M10.0409 11.8091C10.8981 11.8091 11.593 11.1142 11.593 10.257C11.593 9.39985 10.8981 8.70497 10.0409 8.70497C9.18371 8.70497 8.48882 9.39985 8.48882 10.257C8.48882 11.1142 9.18371 11.8091 10.0409 11.8091Z" fill="var(--fill-0, #064FC6)"/>
<path id="Vector_21" d="M10.0409 15.9931C10.8981 15.9931 11.593 15.2982 11.593 14.441C11.593 13.5839 10.8981 12.889 10.0409 12.889C9.18371 12.889 8.48882 13.5839 8.48882 14.441C8.48882 15.2982 9.18371 15.9931 10.0409 15.9931Z" fill="var(--fill-0, #0729A5)"/>
</g>
<g id="Group_6">
<path id="Vector_22" d="M18.4083 3.50924C19.2655 3.50924 19.9604 2.81436 19.9604 1.95717C19.9604 1.09999 19.2655 0.405102 18.4083 0.405102C17.5511 0.405102 16.8562 1.09999 16.8562 1.95717C16.8562 2.81436 17.5511 3.50924 18.4083 3.50924Z" fill="var(--fill-0, #27CBA7)"/>
<path id="Vector_23" d="M18.4083 7.69317C19.2654 7.69317 19.9603 6.99828 19.9603 6.1411C19.9603 5.28391 19.2654 4.58902 18.4083 4.58902C17.5511 4.58902 16.8562 5.28391 16.8562 6.1411C16.8562 6.99828 17.5511 7.69317 18.4083 7.69317Z" fill="var(--fill-0, #1D97FF)"/>
<path id="Vector_24" d="M18.4083 11.8091C19.2654 11.8091 19.9603 11.1142 19.9603 10.257C19.9603 9.39985 19.2654 8.70497 18.4083 8.70497C17.5511 8.70497 16.8562 9.39985 16.8562 10.257C16.8562 11.1142 17.5511 11.8091 18.4083 11.8091Z" fill="var(--fill-0, #064FC6)"/>
<path id="Vector_25" d="M18.4083 15.9931C19.2654 15.9931 19.9603 15.2982 19.9603 14.441C19.9603 13.5839 19.2654 12.889 18.4083 12.889C17.5511 12.889 16.8562 13.5839 16.8562 14.441C16.8562 15.2982 17.5511 15.9931 18.4083 15.9931Z" fill="var(--fill-0, #0729A5)"/>
</g>
<g id="Group_7">
<path id="Vector_26" d="M14.2921 5.60145C15.1493 5.60145 15.8442 4.90657 15.8442 4.04938C15.8442 3.1922 15.1493 2.49731 14.2921 2.49731C13.435 2.49731 12.7401 3.1922 12.7401 4.04938C12.7401 4.90657 13.435 5.60145 14.2921 5.60145Z" fill="var(--fill-0, #27CBA7)"/>
<path id="Vector_27" d="M14.2922 9.78489C15.1494 9.78489 15.8442 9.09 15.8442 8.23282C15.8442 7.37563 15.1494 6.68075 14.2922 6.68075C13.435 6.68075 12.7401 7.37563 12.7401 8.23282C12.7401 9.09 13.435 9.78489 14.2922 9.78489Z" fill="var(--fill-0, #1D97FF)"/>
<path id="Vector_28" d="M14.2922 13.9008C15.1494 13.9008 15.8442 13.2059 15.8442 12.3488C15.8442 11.4916 15.1494 10.7967 14.2922 10.7967C13.435 10.7967 12.7401 11.4916 12.7401 12.3488C12.7401 13.2059 13.435 13.9008 14.2922 13.9008Z" fill="var(--fill-0, #064FC6)"/>
<path id="Vector_29" d="M14.2922 18.0853C15.1494 18.0853 15.8442 17.3904 15.8442 16.5332C15.8442 15.676 15.1494 14.9811 14.2922 14.9811C13.435 14.9811 12.7401 15.676 12.7401 16.5332C12.7401 17.3904 13.435 18.0853 14.2922 18.0853Z" fill="var(--fill-0, #0729A5)"/>
</g>
<path id="Vector_30" d="M5.78944 13.6312C6.64662 13.6312 7.34151 12.9363 7.34151 12.0791C7.34151 11.222 6.64662 10.5271 5.78944 10.5271C4.93225 10.5271 4.23737 11.222 4.23737 12.0791C4.23737 12.9363 4.93225 13.6312 5.78944 13.6312Z" fill="var(--fill-0, #064FC6)"/>
</g>
</g>
<path id="Vector_31" d="M146.555 13.1597C146.825 13.2946 147.028 13.4971 147.163 13.767C147.298 14.0369 147.365 14.3068 147.365 14.6442C147.365 14.9817 147.298 15.2516 147.163 15.5215C147.028 15.7914 146.825 15.9939 146.555 16.1288C146.285 16.2638 146.016 16.3313 145.678 16.3313C145.341 16.3313 145.071 16.2638 144.801 16.1288C144.531 15.9939 144.329 15.7914 144.194 15.5215C144.059 15.2516 143.991 14.9817 143.991 14.6442C143.991 14.3068 144.059 14.0369 144.194 13.767C144.329 13.4971 144.531 13.2946 144.801 13.1597C145.071 13.0247 145.341 12.9572 145.678 12.9572C146.016 12.9572 146.285 13.0247 146.555 13.1597ZM146.555 15.589C146.758 15.3191 146.893 15.0491 146.893 14.6442C146.893 14.2394 146.758 13.902 146.555 13.6995C146.353 13.4296 146.016 13.3621 145.611 13.3621C145.206 13.3621 144.936 13.4971 144.666 13.6995C144.464 13.9694 144.329 14.2394 144.329 14.6442C144.329 15.0491 144.464 15.3865 144.666 15.589C144.868 15.7914 145.206 15.9264 145.611 15.9264C146.016 15.9264 146.285 15.7914 146.555 15.589ZM146.285 14.6442C146.285 14.7117 146.151 14.7792 146.016 14.8467L146.42 15.5215H145.813L145.476 14.9142V15.5215H144.936V13.767H145.746C145.948 13.767 146.083 13.767 146.218 13.902C146.353 14.0369 146.42 14.1719 146.42 14.3068C146.42 14.4418 146.42 14.5093 146.353 14.6442H146.285ZM145.476 14.4418H145.746C145.746 14.4418 145.813 14.4418 145.881 14.4418C145.948 14.4418 145.881 14.4418 145.881 14.3068C145.881 14.1719 145.881 14.2394 145.881 14.2394C145.881 14.2394 145.881 14.2394 145.746 14.2394H145.476V14.5093V14.4418Z" fill="var(--fill-0, black)"/>
</g>
<defs>
<clipPath id="clip0_0_422">
<rect width="147.784" height="20.9192" fill="white"/>
</clipPath>
</defs>
</svg>
