<svg preserveAspectRatio="none" width="100%" height="100%" overflow="visible" style="display: block;" viewBox="0 0 24 24" fill="none" xmlns="http://www.w3.org/2000/svg">
<g id="dashboard_2">
<mask id="mask0_0_473" style="mask-type:alpha" maskUnits="userSpaceOnUse" x="0" y="0" width="24" height="24">
<rect id="Bounding box" width="24" height="24" fill="var(--fill-0, #D9D9D9)"/>
</mask>
<g mask="url(#mask0_0_473)">
<path id="dashboard_2_2" d="M16.0038 19.5C15.7436 19.5 15.5273 19.4133 15.3548 19.24C15.1824 19.0668 15.0962 18.8522 15.0962 18.596V14.0037C15.0962 13.7436 15.1828 13.5273 15.356 13.3548C15.5292 13.1824 15.7438 13.0963 16 13.0963H20.5923C20.8526 13.0963 21.0689 13.1828 21.2413 13.356C21.4138 13.5292 21.5 13.7438 21.5 14V18.5922C21.5 18.8526 21.4133 19.0689 21.24 19.2413C21.0668 19.4138 20.8522 19.5 20.596 19.5H16.0038ZM12 10.9038C11.7438 10.9038 11.5292 10.8172 11.356 10.644C11.1828 10.4708 11.0963 10.2562 11.0963 10V5.40775C11.0963 5.14742 11.1828 4.93108 11.356 4.75875C11.5292 4.58625 11.7438 4.5 12 4.5H20.596C20.8522 4.5 21.0668 4.58667 21.24 4.76C21.4133 4.93317 21.5 5.14783 21.5 5.404V9.99625C21.5 10.2564 21.4133 10.4727 21.24 10.6452C21.0668 10.8176 20.8522 10.9038 20.596 10.9038H12ZM3.404 19.5C3.14783 19.5 2.93317 19.4133 2.76 19.24C2.58667 19.0668 2.5 18.8522 2.5 18.596V14.0037C2.5 13.7436 2.58667 13.5273 2.76 13.3548C2.93317 13.1824 3.14783 13.0963 3.404 13.0963H12C12.2562 13.0963 12.4708 13.1828 12.644 13.356C12.8172 13.5292 12.9038 13.7438 12.9038 14V18.5922C12.9038 18.8526 12.8172 19.0689 12.644 19.2413C12.4708 19.4138 12.2562 19.5 12 19.5H3.404ZM3.40775 10.9038C3.14742 10.9038 2.93108 10.8172 2.75875 10.644C2.58625 10.4708 2.5 10.2562 2.5 10V5.40775C2.5 5.14742 2.58667 4.93108 2.76 4.75875C2.93317 4.58625 3.14783 4.5 3.404 4.5H7.99625C8.25642 4.5 8.47275 4.58667 8.64525 4.76C8.81758 4.93317 8.90375 5.14783 8.90375 5.404V9.99625C8.90375 10.2564 8.81717 10.4727 8.644 10.6452C8.47083 10.8176 8.25617 10.9038 8 10.9038H3.40775Z" fill="var(--fill-0, #4169E1)"/>
</g>
</g>
</svg>
