<svg preserveAspectRatio="none" width="100%" height="100%" overflow="visible" style="display: block;" viewBox="0 0 24 24" fill="none" xmlns="http://www.w3.org/2000/svg">
<g id="database">
<mask id="mask0_0_470" style="mask-type:alpha" maskUnits="userSpaceOnUse" x="0" y="0" width="24" height="24">
<rect id="Bounding box" width="24" height="24" fill="var(--fill-0, #D9D9D9)"/>
</mask>
<g mask="url(#mask0_0_470)">
<path id="database_2" d="M18.0337 9.9115C19.6842 9.1795 20.5095 8.29558 20.5095 7.25975C20.5095 6.22375 19.6842 5.33975 18.0337 4.60775C16.3831 3.87575 14.375 3.50975 12.0095 3.50975C9.64417 3.50975 7.63458 3.87575 5.98075 4.60775C4.32692 5.33975 3.5 6.22375 3.5 7.25975C3.5 8.29558 4.32692 9.1795 5.98075 9.9115C7.63458 10.6435 9.64417 11.0095 12.0095 11.0095C14.375 11.0095 16.3831 10.6435 18.0337 9.9115ZM14.5193 12.826C15.4513 12.6907 16.3394 12.4807 17.1837 12.196C18.0279 11.9115 18.7612 11.5487 19.3835 11.1077C20.006 10.6667 20.3813 10.1404 20.5095 9.52875V12.2598C20.3813 12.8713 20.006 13.3975 19.3835 13.8385C18.7612 14.2795 18.0279 14.6423 17.1837 14.927C16.3394 15.2115 15.4513 15.4214 14.5193 15.5568C13.5873 15.6919 12.7475 15.7595 12 15.7595C11.2525 15.7595 10.4128 15.6919 9.48075 15.5568C8.54875 15.4214 7.66225 15.2115 6.82125 14.927C5.98025 14.6423 5.2485 14.2795 4.626 13.8385C4.0035 13.3975 3.62817 12.8713 3.5 12.2598V9.52875C3.62817 10.1404 4.0035 10.6667 4.626 11.1077C5.2485 11.5487 5.98025 11.9115 6.82125 12.196C7.66225 12.4807 8.54875 12.6907 9.48075 12.826C10.4128 12.9612 11.2525 13.0288 12 13.0288C12.7475 13.0288 13.5873 12.9612 14.5193 12.826ZM14.5193 17.576C15.4513 17.4407 16.3394 17.2307 17.1837 16.946C18.0279 16.6615 18.7612 16.2987 19.3835 15.8577C20.006 15.4166 20.3813 14.8903 20.5095 14.2788V17C20.3813 17.6115 20.006 18.1378 19.3835 18.5788C18.7612 19.0198 18.0279 19.3826 17.1837 19.6672C16.3394 19.9519 15.4513 20.1618 14.5193 20.297C13.5873 20.4323 12.7475 20.5 12 20.5C11.2525 20.5 10.4128 20.4323 9.48075 20.297C8.54875 20.1618 7.66225 19.9519 6.82125 19.6672C5.98025 19.3826 5.2485 19.0198 4.626 18.5788C4.0035 18.1378 3.62817 17.6115 3.5 17V14.2788C3.62817 14.8903 4.0035 15.4166 4.626 15.8577C5.2485 16.2987 5.98025 16.6615 6.82125 16.946C7.66225 17.2307 8.54875 17.4407 9.48075 17.576C10.4128 17.7112 11.2525 17.7788 12 17.7788C12.7475 17.7788 13.5873 17.7112 14.5193 17.576Z" fill="var(--fill-0, #454545)"/>
</g>
</g>
</svg>
