<svg preserveAspectRatio="none" width="100%" height="100%" overflow="visible" style="display: block;" viewBox="0 0 24 24" fill="none" xmlns="http://www.w3.org/2000/svg">
<g id="left_panel_open">
<mask id="mask0_0_458" style="mask-type:alpha" maskUnits="userSpaceOnUse" x="0" y="0" width="24" height="24">
<rect id="Bounding box" width="24" height="24" fill="var(--fill-0, #D9D9D9)"/>
</mask>
<g mask="url(#mask0_0_458)">
<path id="left_panel_open_2" d="M12.452 9.498V14.5008C12.452 14.7093 12.544 14.8519 12.728 14.9287C12.9118 15.0057 13.0783 14.9698 13.2275 14.8207L15.4182 12.6298C15.5971 12.4509 15.6865 12.241 15.6865 12C15.6865 11.759 15.5961 11.5481 15.4152 11.3672L13.2273 9.179C13.0783 9.03017 12.9118 8.99342 12.728 9.06875C12.544 9.14408 12.452 9.28717 12.452 9.498ZM5.30775 20.5C4.81058 20.5 4.385 20.323 4.031 19.969C3.677 19.615 3.5 19.1894 3.5 18.6923V5.30775C3.5 4.81058 3.677 4.385 4.031 4.031C4.385 3.677 4.81058 3.5 5.30775 3.5H18.6923C19.1894 3.5 19.615 3.677 19.969 4.031C20.323 4.385 20.5 4.81058 20.5 5.30775V18.6923C20.5 19.1894 20.323 19.615 19.969 19.969C19.615 20.323 19.1894 20.5 18.6923 20.5H5.30775ZM9.5 19H18.6923C18.7693 19 18.8398 18.9679 18.9038 18.9038C18.9679 18.8398 19 18.7693 19 18.6923V5.30775C19 5.23075 18.9679 5.16025 18.9038 5.09625C18.8398 5.03208 18.7693 5 18.6923 5H9.5V19Z" fill="var(--fill-0, #454545)"/>
</g>
</g>
</svg>
