<svg preserveAspectRatio="none" width="100%" height="100%" overflow="visible" style="display: block;" viewBox="0 0 24 24" fill="none" xmlns="http://www.w3.org/2000/svg">
<g id="lightbulb_2">
<mask id="mask0_0_464" style="mask-type:alpha" maskUnits="userSpaceOnUse" x="0" y="0" width="24" height="24">
<rect id="Bounding box" width="24" height="24" fill="var(--fill-0, #D9D9D9)"/>
</mask>
<g mask="url(#mask0_0_464)">
<path id="lightbulb_2_2" d="M10.184 17.8077C9.6845 17.8077 9.25808 17.6308 8.90475 17.2768C8.55158 16.9228 8.375 16.4972 8.375 16V14.4038C7.46983 13.7988 6.76442 13.0199 6.25875 12.0673C5.75292 11.1148 5.5 10.0955 5.5 9.0095C5.5 7.20067 6.1305 5.6635 7.3915 4.398C8.65233 3.13267 10.1879 2.5 11.9983 2.5C13.8084 2.5 15.3446 3.13067 16.6068 4.392C17.8689 5.65333 18.5 7.18933 18.5 9C18.5 10.0923 18.2471 11.1122 17.7413 12.0595C17.2356 13.007 16.5302 13.7884 15.625 14.4038V16C15.625 16.4972 15.448 16.9228 15.094 17.2768C14.74 17.6308 14.3144 17.8077 13.8173 17.8077H10.184ZM10.0865 21.5C9.874 21.5 9.69592 21.4281 9.55225 21.2843C9.40842 21.1404 9.3365 20.9622 9.3365 20.7497C9.3365 20.5371 9.40842 20.359 9.55225 20.2155C9.69592 20.0718 9.874 20 10.0865 20H13.9135C14.126 20 14.3041 20.0719 14.4477 20.2157C14.5916 20.3596 14.6635 20.5377 14.6635 20.7502C14.6635 20.9629 14.5916 21.141 14.4477 21.2845C14.3041 21.4282 14.126 21.5 13.9135 21.5H10.0865Z" fill="var(--fill-0, #454545)"/>
</g>
</g>
</svg>
