<svg preserveAspectRatio="none" width="100%" height="100%" overflow="visible" style="display: block;" viewBox="0 0 24 24" fill="none" xmlns="http://www.w3.org/2000/svg">
<g id="lists">
<mask id="mask0_0_476" style="mask-type:alpha" maskUnits="userSpaceOnUse" x="0" y="0" width="24" height="24">
<rect id="Bounding box" width="24" height="24" fill="var(--fill-0, #D9D9D9)"/>
</mask>
<g mask="url(#mask0_0_476)">
<path id="lists_2" d="M9.44225 19.5C9.02042 19.5 8.66175 19.3523 8.36625 19.0568C8.07075 18.7613 7.923 18.4026 7.923 17.9808C7.923 17.5589 8.07075 17.2002 8.36625 16.9047C8.66175 16.6092 9.02042 16.4615 9.44225 16.4615H19.9807C20.4026 16.4615 20.7613 16.6092 21.0568 16.9047C21.3523 17.2002 21.5 17.5589 21.5 17.9808C21.5 18.4026 21.3523 18.7613 21.0568 19.0568C20.7613 19.3523 20.4026 19.5 19.9807 19.5H9.44225ZM9.44225 13.5192C9.02042 13.5192 8.66175 13.3715 8.36625 13.076C8.07075 12.7805 7.923 12.4218 7.923 12C7.923 11.5782 8.07075 11.2195 8.36625 10.924C8.66175 10.6285 9.02042 10.4807 9.44225 10.4807H19.9807C20.4026 10.4807 20.7613 10.6285 21.0568 10.924C21.3523 11.2195 21.5 11.5782 21.5 12C21.5 12.4218 21.3523 12.7805 21.0568 13.076C20.7613 13.3715 20.4026 13.5192 19.9807 13.5192H9.44225ZM9.44225 7.5385C9.02042 7.5385 8.66175 7.39075 8.36625 7.09525C8.07075 6.79975 7.923 6.44108 7.923 6.01925C7.923 5.59742 8.07075 5.23875 8.36625 4.94325C8.66175 4.64775 9.02042 4.5 9.44225 4.5H19.9807C20.4026 4.5 20.7613 4.64775 21.0568 4.94325C21.3523 5.23875 21.5 5.59742 21.5 6.01925C21.5 6.44108 21.3523 6.79975 21.0568 7.09525C20.7613 7.39075 20.4026 7.5385 19.9807 7.5385H9.44225ZM2.94325 7.09525C2.64775 6.79975 2.5 6.44108 2.5 6.01925C2.5 5.59742 2.64775 5.23875 2.94325 4.94325C3.23875 4.64775 3.59742 4.5 4.01925 4.5C4.44108 4.5 4.79975 4.64775 5.09525 4.94325C5.39075 5.23875 5.5385 5.59742 5.5385 6.01925C5.5385 6.44108 5.39075 6.79975 5.09525 7.09525C4.79975 7.39075 4.44108 7.5385 4.01925 7.5385C3.59742 7.5385 3.23875 7.39075 2.94325 7.09525ZM4.01925 13.5192C3.59742 13.5192 3.23875 13.3715 2.94325 13.076C2.64775 12.7805 2.5 12.4218 2.5 12C2.5 11.5782 2.64775 11.2195 2.94325 10.924C3.23875 10.6285 3.59742 10.4807 4.01925 10.4807C4.44108 10.4807 4.79975 10.6285 5.09525 10.924C5.39075 11.2195 5.5385 11.5782 5.5385 12C5.5385 12.4218 5.39075 12.7805 5.09525 13.076C4.79975 13.3715 4.44108 13.5192 4.01925 13.5192ZM4.01925 19.5C3.59742 19.5 3.23875 19.3523 2.94325 19.0568C2.64775 18.7613 2.5 18.4026 2.5 17.9808C2.5 17.5589 2.64775 17.2002 2.94325 16.9047C3.23875 16.6092 3.59742 16.4615 4.01925 16.4615C4.44108 16.4615 4.79975 16.6092 5.09525 16.9047C5.39075 17.2002 5.5385 17.5589 5.5385 17.9808C5.5385 18.4026 5.39075 18.7613 5.09525 19.0568C4.79975 19.3523 4.44108 19.5 4.01925 19.5Z" fill="var(--fill-0, #454545)"/>
</g>
</g>
</svg>
