<svg width="24.0912" height="17.6804" viewBox="0 0 24.0912 17.6804" fill="none" xmlns="http://www.w3.org/2000/svg">
<g id="Group">
<path id="Vector" d="M5.73592 4.92658C6.59311 4.92658 7.28799 4.23169 7.28799 3.37451C7.28799 2.51732 6.59311 1.82244 5.73592 1.82244C4.87874 1.82244 4.18385 2.51732 4.18385 3.37451C4.18385 4.23169 4.87874 4.92658 5.73592 4.92658Z" fill="var(--fill-0, #27CBA7)"/>
<path id="Vector_2" d="M5.73592 9.10976C6.59311 9.10976 7.28799 8.41487 7.28799 7.55769C7.28799 6.7005 6.59311 6.00562 5.73592 6.00562C4.87874 6.00562 4.18385 6.7005 4.18385 7.55769C4.18385 8.41487 4.87874 9.10976 5.73592 9.10976Z" fill="var(--fill-0, #1D97FF)"/>
<g id="Group_2">
<path id="Vector_3" d="M1.55207 3.10423C2.40926 3.10423 3.10414 2.40934 3.10414 1.55216C3.10414 0.694971 2.40926 8.58784e-05 1.55207 8.58784e-05C0.694886 8.58784e-05 0 0.694971 0 1.55216C0 2.40934 0.694886 3.10423 1.55207 3.10423Z" fill="var(--fill-0, #27CBA7)"/>
<path id="Vector_4" d="M1.55212 7.28815C2.40931 7.28815 3.10419 6.59326 3.10419 5.73608C3.10419 4.87889 2.40931 4.18401 1.55212 4.18401C0.694937 4.18401 5.07355e-05 4.87889 5.07355e-05 5.73608C5.07355e-05 6.59326 0.694937 7.28815 1.55212 7.28815Z" fill="var(--fill-0, #1D97FF)"/>
</g>
<g id="Group_3">
<path id="Vector_5" d="M22.539 5.39848C23.3962 5.39848 24.0911 4.70359 24.0911 3.84641C24.0911 2.98922 23.3962 2.29434 22.539 2.29434C21.6818 2.29434 20.9869 2.98922 20.9869 3.84641C20.9869 4.70359 21.6818 5.39848 22.539 5.39848Z" fill="var(--fill-0, #27CBA7)"/>
<path id="Vector_6" d="M22.5391 9.5823C23.3963 9.5823 24.0912 8.88742 24.0912 8.03023C24.0912 7.17305 23.3963 6.47816 22.5391 6.47816C21.6819 6.47816 20.987 7.17305 20.987 8.03023C20.987 8.88742 21.6819 9.5823 22.5391 9.5823Z" fill="var(--fill-0, #1D97FF)"/>
</g>
<g id="Group_4">
<path id="Vector_7" d="M9.98737 3.10414C10.8446 3.10414 11.5394 2.40925 11.5394 1.55207C11.5394 0.694885 10.8446 0 9.98737 0C9.13019 0 8.4353 0.694885 8.4353 1.55207C8.4353 2.40925 9.13019 3.10414 9.98737 3.10414Z" fill="var(--fill-0, #27CBA7)"/>
<path id="Vector_8" d="M9.98738 7.28807C10.8446 7.28807 11.5394 6.59318 11.5394 5.73599C11.5394 4.87881 10.8446 4.18392 9.98738 4.18392C9.13019 4.18392 8.43531 4.87881 8.43531 5.73599C8.43531 6.59318 9.13019 7.28807 9.98738 7.28807Z" fill="var(--fill-0, #1D97FF)"/>
<path id="Vector_9" d="M9.98738 11.404C10.8446 11.404 11.5394 10.7091 11.5394 9.85194C11.5394 8.99475 10.8446 8.29987 9.98738 8.29987C9.13019 8.29987 8.43531 8.99475 8.43531 9.85194C8.43531 10.7091 9.13019 11.404 9.98738 11.404Z" fill="var(--fill-0, #064FC6)"/>
<path id="Vector_10" d="M9.98738 15.588C10.8446 15.588 11.5394 14.8931 11.5394 14.0359C11.5394 13.1788 10.8446 12.4839 9.98738 12.4839C9.13019 12.4839 8.43531 13.1788 8.43531 14.0359C8.43531 14.8931 9.13019 15.588 9.98738 15.588Z" fill="var(--fill-0, #0729A5)"/>
</g>
<g id="Group_5">
<path id="Vector_11" d="M18.3548 3.10414C19.212 3.10414 19.9068 2.40925 19.9068 1.55207C19.9068 0.694885 19.212 0 18.3548 0C17.4976 0 16.8027 0.694885 16.8027 1.55207C16.8027 2.40925 17.4976 3.10414 18.3548 3.10414Z" fill="var(--fill-0, #27CBA7)"/>
<path id="Vector_12" d="M18.3547 7.28807C19.2119 7.28807 19.9068 6.59318 19.9068 5.73599C19.9068 4.87881 19.2119 4.18392 18.3547 4.18392C17.4976 4.18392 16.8027 4.87881 16.8027 5.73599C16.8027 6.59318 17.4976 7.28807 18.3547 7.28807Z" fill="var(--fill-0, #1D97FF)"/>
<path id="Vector_13" d="M18.3547 11.404C19.2119 11.404 19.9068 10.7091 19.9068 9.85194C19.9068 8.99475 19.2119 8.29987 18.3547 8.29987C17.4976 8.29987 16.8027 8.99475 16.8027 9.85194C16.8027 10.7091 17.4976 11.404 18.3547 11.404Z" fill="var(--fill-0, #064FC6)"/>
<path id="Vector_14" d="M18.3547 15.588C19.2119 15.588 19.9068 14.8931 19.9068 14.0359C19.9068 13.1788 19.2119 12.4839 18.3547 12.4839C17.4976 12.4839 16.8027 13.1788 16.8027 14.0359C16.8027 14.8931 17.4976 15.588 18.3547 15.588Z" fill="var(--fill-0, #0729A5)"/>
</g>
<g id="Group_6">
<path id="Vector_15" d="M14.2386 5.19635C15.0958 5.19635 15.7907 4.50147 15.7907 3.64428C15.7907 2.7871 15.0958 2.09221 14.2386 2.09221C13.3814 2.09221 12.6866 2.7871 12.6866 3.64428C12.6866 4.50147 13.3814 5.19635 14.2386 5.19635Z" fill="var(--fill-0, #27CBA7)"/>
<path id="Vector_16" d="M14.2386 9.37979C15.0958 9.37979 15.7907 8.6849 15.7907 7.82772C15.7907 6.97053 15.0958 6.27565 14.2386 6.27565C13.3815 6.27565 12.6866 6.97053 12.6866 7.82772C12.6866 8.6849 13.3815 9.37979 14.2386 9.37979Z" fill="var(--fill-0, #1D97FF)"/>
<path id="Vector_17" d="M14.2386 13.4957C15.0958 13.4957 15.7907 12.8008 15.7907 11.9437C15.7907 11.0865 15.0958 10.3916 14.2386 10.3916C13.3815 10.3916 12.6866 11.0865 12.6866 11.9437C12.6866 12.8008 13.3815 13.4957 14.2386 13.4957Z" fill="var(--fill-0, #064FC6)"/>
<path id="Vector_18" d="M14.2386 17.6802C15.0958 17.6802 15.7907 16.9853 15.7907 16.1281C15.7907 15.2709 15.0958 14.576 14.2386 14.576C13.3815 14.576 12.6866 15.2709 12.6866 16.1281C12.6866 16.9853 13.3815 17.6802 14.2386 17.6802Z" fill="var(--fill-0, #0729A5)"/>
</g>
<path id="Vector_19" d="M5.73592 13.2261C6.59311 13.2261 7.28799 12.5312 7.28799 11.674C7.28799 10.8169 6.59311 10.122 5.73592 10.122C4.87874 10.122 4.18385 10.8169 4.18385 11.674C4.18385 12.5312 4.87874 13.2261 5.73592 13.2261Z" fill="var(--fill-0, #064FC6)"/>
</g>
</svg>
