<svg preserveAspectRatio="none" width="100%" height="100%" overflow="visible" style="display: block;" viewBox="0 0 24 24" fill="none" xmlns="http://www.w3.org/2000/svg">
<g id="right_panel_open">
<mask id="mask0_0_402" style="mask-type:alpha" maskUnits="userSpaceOnUse" x="0" y="0" width="24" height="24">
<rect id="Bounding box" width="24" height="24" fill="var(--fill-0, #D9D9D9)"/>
</mask>
<g mask="url(#mask0_0_402)">
<path id="right_panel_open_2" d="M11.548 14.502V9.49925C11.548 9.29075 11.456 9.14808 11.272 9.07125C11.0882 8.99425 10.9217 9.03025 10.7725 9.17925L8.58175 11.3702C8.40292 11.5491 8.3135 11.759 8.3135 12C8.3135 12.241 8.40392 12.4519 8.58475 12.6328L10.7728 14.821C10.9218 14.9698 11.0882 15.0066 11.272 14.9313C11.456 14.8559 11.548 14.7128 11.548 14.502ZM5.30775 20.5C4.81058 20.5 4.385 20.323 4.031 19.969C3.677 19.615 3.5 19.1894 3.5 18.6923V5.30775C3.5 4.81058 3.677 4.385 4.031 4.031C4.385 3.677 4.81058 3.5 5.30775 3.5H18.6923C19.1894 3.5 19.615 3.677 19.969 4.031C20.323 4.385 20.5 4.81058 20.5 5.30775V18.6923C20.5 19.1894 20.323 19.615 19.969 19.969C19.615 20.323 19.1894 20.5 18.6923 20.5H5.30775ZM14.5 19V5H5.30775C5.23075 5 5.16025 5.03208 5.09625 5.09625C5.03208 5.16025 5 5.23075 5 5.30775V18.6923C5 18.7693 5.03208 18.8398 5.09625 18.9038C5.16025 18.9679 5.23075 19 5.30775 19H14.5Z" fill="var(--fill-0, #454545)"/>
</g>
</g>
</svg>
