<svg preserveAspectRatio="none" width="100%" height="100%" overflow="visible" style="display: block;" viewBox="0 0 24 24" fill="none" xmlns="http://www.w3.org/2000/svg">
<g id="shopping_bag">
<mask id="mask0_0_419" style="mask-type:alpha" maskUnits="userSpaceOnUse" x="0" y="0" width="24" height="24">
<rect id="Bounding box" width="24" height="24" fill="var(--fill-0, #D9D9D9)"/>
</mask>
<g mask="url(#mask0_0_419)">
<path id="shopping_bag_2" d="M6.30775 21.5C5.80258 21.5 5.375 21.325 5.025 20.975C4.675 20.625 4.5 20.1974 4.5 19.6923V8.30775C4.5 7.80258 4.675 7.375 5.025 7.025C5.375 6.675 5.80258 6.5 6.30775 6.5H8.25V6.25C8.25 5.21417 8.616 4.33017 9.348 3.598C10.0802 2.866 10.9642 2.5 12 2.5C13.0358 2.5 13.9198 2.866 14.652 3.598C15.384 4.33017 15.75 5.21417 15.75 6.25V6.5H17.6923C18.1974 6.5 18.625 6.675 18.975 7.025C19.325 7.375 19.5 7.80258 19.5 8.30775V19.6923C19.5 20.1974 19.325 20.625 18.975 20.975C18.625 21.325 18.1974 21.5 17.6923 21.5H6.30775ZM9.75 6.5H14.25V6.25C14.25 5.62317 14.0318 5.09142 13.5953 4.65475C13.1588 4.21825 12.627 4 12 4C11.373 4 10.8413 4.21825 10.4048 4.65475C9.96825 5.09142 9.75 5.62317 9.75 6.25V6.5ZM15.5345 10.7845C15.6782 10.641 15.75 10.4628 15.75 10.25V8H14.25V10.25C14.25 10.4628 14.3218 10.641 14.4655 10.7845C14.609 10.9282 14.7872 11 15 11C15.2128 11 15.391 10.9282 15.5345 10.7845ZM9.5345 10.7845C9.67817 10.641 9.75 10.4628 9.75 10.25V8H8.25V10.25C8.25 10.4628 8.32183 10.641 8.4655 10.7845C8.609 10.9282 8.78717 11 9 11C9.21283 11 9.391 10.9282 9.5345 10.7845Z" fill="var(--fill-0, #454545)"/>
</g>
</g>
</svg>
