<svg preserveAspectRatio="none" width="100%" height="100%" overflow="visible" style="display: block;" viewBox="0 0 16 16" fill="none" xmlns="http://www.w3.org/2000/svg">
<g id="Logo">
<path id="Path 2" d="M12.0523 5.20217H10.0697C8.89875 5.20217 6.25779 4.60978 7.03835 1.33333C6.55096 1.52619 6.13278 1.86109 5.83809 2.29457C5.5434 2.72805 5.3858 3.2401 5.38574 3.76427V4.72285C5.38574 4.89059 5.39144 5.05467 5.40284 5.21511C7.89931 5.38216 10.3705 7.16005 10.5974 10.4178C10.7264 10.4266 10.8555 10.431 10.9848 10.431H12.0523C12.7457 10.431 13.4106 10.1555 13.9009 9.66525C14.3912 9.17497 14.6666 8.51001 14.6666 7.81666C14.6666 7.12331 14.3912 6.45835 13.9009 5.96808C13.4106 5.4778 12.7457 5.20237 12.0523 5.20237V5.20217Z" fill="url(#paint0_linear_0_390)"/>
<path id="Path 3" d="M5.01532 5.20251H3.94776C3.25441 5.20251 2.58945 5.47794 2.09918 5.96822C1.6089 6.45849 1.33347 7.12345 1.33347 7.8168C1.33347 8.51016 1.6089 9.17511 2.09918 9.66539C2.58945 10.1557 3.25441 10.4311 3.94776 10.4311H5.93033C7.10111 10.4311 9.74207 11.0235 8.96164 14.3001C9.449 14.1071 9.86715 13.7722 10.1618 13.3387C10.4565 12.9053 10.6141 12.3932 10.6142 11.8691V10.9104C10.6142 7.16336 7.76043 5.20251 5.01532 5.20251Z" fill="url(#paint1_linear_0_390)"/>
</g>
<defs>
<linearGradient id="paint0_linear_0_390" x1="9.8695" y1="5.26312" x2="9.8695" y2="10.5263" gradientUnits="userSpaceOnUse">
<stop stop-color="#27CBA7"/>
<stop offset="1" stop-color="#1D97FF"/>
</linearGradient>
<linearGradient id="paint1_linear_0_390" x1="6.07998" y1="5.26316" x2="6.07998" y2="10.5263" gradientUnits="userSpaceOnUse">
<stop stop-color="#1D97FF"/>
<stop offset="1" stop-color="#0B61DD"/>
</linearGradient>
</defs>
</svg>
